<svg width="564" height="306" viewBox="0 0 564 306" fill="none" xmlns="http://www.w3.org/2000/svg">
<g filter="url(#filter0_d_130_2556)">
<path d="M247.389 279.492C247.389 278.852 234.669 256.282 239.599 239.102C242.564 228.508 246.919 218.353 252.549 208.902C252.549 208.702 258.279 202.902 265.279 178.902C272.279 153.832 263.669 140.412 263.669 140.902C263.669 140.902 260.349 132.072 240.169 120.242C219.989 108.412 208.409 106.082 208.409 106.152C208.409 107.032 235.809 120.272 242.809 143.492C249.809 167.742 243.719 180.932 243.719 180.692C243.719 180.692 241.089 191.252 229.719 206.692C218.349 222.132 218.869 234.122 218.869 234.112C218.869 234.102 219.449 244.662 228.389 255.852C237.329 267.042 246.469 278.842 247.389 279.492Z" fill="url(#paint0_linear_130_2556)" shape-rendering="crispEdges"/>
</g>
<g filter="url(#filter1_d_130_2556)">
<path d="M238.209 155.392C238.209 155.302 236.709 142.212 218.769 126.652C207.802 117.232 195.75 109.155 182.869 102.592C182.869 104.402 138.789 69.4919 135.689 53.2119C140.156 72.9928 148.927 91.5462 161.379 107.552C182.199 133.372 196.599 136.792 196.599 137.132C196.599 137.132 209.009 141.442 218.309 143.552C227.609 145.662 238.209 155.332 238.209 155.392Z" fill="url(#paint1_linear_130_2556)" shape-rendering="crispEdges"/>
</g>
<g filter="url(#filter2_d_130_2556)">
<path d="M236.069 171.162C237.069 171.302 237.829 170.462 237.409 169.702C234.529 164.422 219.299 157.372 213.319 155.062C195.929 148.652 172.619 145.892 172.619 145.852C172.619 145.922 147.869 144.062 138.299 141.292C130.549 139.102 119.079 136.492 115.099 134.422C114.479 134.092 113.399 134.422 113.679 135.102C114.839 137.882 122.549 146.592 140.179 152.852C164.369 161.292 186.959 159.342 186.959 159.472C205.449 158.752 213.879 161.272 217.559 163.122C221.239 164.972 224.199 165.852 229.089 168.612C231.241 169.878 233.607 170.742 236.069 171.162Z" fill="url(#paint2_linear_130_2556)" shape-rendering="crispEdges"/>
</g>
<g filter="url(#filter3_d_130_2556)">
<path d="M226.449 185.132C226.449 185.132 237.329 184.922 232.449 176.712C227.569 168.502 204.319 166.712 204.319 166.712C204.319 166.802 186.129 164.142 159.679 167.252C133.239 170.642 112.609 170.472 107.729 168.682C107.729 168.942 123.929 190.942 135.729 193.432C147.509 196.432 155.389 196.062 170.019 190.352C184.649 184.642 194.589 180.972 204.899 181.962C215.209 182.952 223.869 185.482 226.449 185.132Z" fill="url(#paint3_linear_130_2556)" shape-rendering="crispEdges"/>
</g>
<g filter="url(#filter4_d_130_2556)">
<path d="M225.869 196.872C225.869 196.872 234.689 190.722 223.059 189.142C211.429 187.742 204.659 187.012 186.939 191.142C169.219 195.272 153.099 205.222 153.099 205.292C153.099 205.172 141.659 211.212 117.099 212.642C117.099 212.392 110.159 215.852 136.599 221.242C163.049 225.512 183.679 216.652 183.679 217.052C183.689 216.662 210.509 209.242 225.869 196.872Z" fill="url(#paint4_linear_130_2556)" shape-rendering="crispEdges"/>
</g>
<g filter="url(#filter5_d_130_2556)">
<path d="M206.569 220.582C206.569 220.582 210.139 217.842 204.879 219.082C199.629 220.082 183.129 230.412 183.129 230.642C183.129 230.252 161.929 245.342 147.869 248.542C133.799 251.222 127.799 249.682 127.799 249.662C127.799 249.642 122.359 249.862 126.109 252.802C129.859 255.922 140.549 264.252 158.559 259.352C176.559 254.952 179.749 250.112 188.939 238.162C198.129 226.552 200.379 224.132 206.569 220.582Z" fill="url(#paint5_linear_130_2556)" shape-rendering="crispEdges"/>
</g>
<g filter="url(#filter6_d_130_2556)">
<path d="M207.439 236.512C207.549 236.182 207.119 235.912 206.769 236.112C204.699 237.302 199.519 240.752 193.069 249.962C184.629 262.162 183.839 266.142 180.499 270.482C177.759 274.192 173.749 277.842 161.669 283.982C161.149 284.262 161.159 284.982 161.669 284.982C165.739 284.742 178.669 282.982 187.249 277.872C187.249 277.762 197.409 272.052 200.379 259.612C202.309 251.332 206.289 239.752 207.439 236.512Z" fill="url(#paint6_linear_130_2556)" shape-rendering="crispEdges"/>
</g>
<g filter="url(#filter7_d_130_2556)">
<path d="M214.569 252.432C214.514 252.343 214.434 252.272 214.341 252.225C214.247 252.179 214.142 252.16 214.038 252.171C213.934 252.181 213.834 252.221 213.752 252.284C213.669 252.348 213.605 252.434 213.569 252.532C212.829 255.752 210.569 265.602 208.399 269.852C205.749 275.032 202.219 281.262 195.319 285.702C188.839 290.012 186.319 291.482 179.859 295.762C179.339 296.122 179.289 296.762 179.789 296.842C183.109 297.382 193.139 297.652 204.629 293.962C218.829 289.962 218.749 272.422 218.749 272.112C218.759 272.122 217.949 257.742 214.569 252.432Z" fill="url(#paint7_linear_130_2556)" shape-rendering="crispEdges"/>
</g>
<g filter="url(#filter8_d_130_2556)">
<path d="M140.869 94.6922C141.359 94.9522 141.779 94.5522 141.539 94.0522C138.879 88.6122 127.469 65.2522 118.459 53.7822C105.869 37.5022 69.2487 4.62222 59.4487 0.0922198C58.9087 -0.26778 58.3287 0.50222 58.6887 1.09222C63.2587 8.39222 78.1987 33.7922 92.2187 50.5222C108.759 70.0922 120.509 84.1222 140.869 94.6922Z" fill="url(#paint8_linear_130_2556)" shape-rendering="crispEdges"/>
</g>
<g filter="url(#filter9_d_130_2556)">
<path d="M174.639 140.752C174.999 140.942 175.389 140.682 175.259 140.332C173.759 136.232 166.399 120.542 142.969 107.262C116.089 91.7524 105.079 84.5624 97.4388 76.2024C89.7888 67.2824 65.4388 41.8924 65.4388 42.4324C65.4388 42.3424 56.7488 33.5824 54.3188 33.7324C51.8888 33.8824 50.9588 34.7924 53.3188 38.9524C55.6288 42.8824 68.6088 64.8224 76.3688 76.1124C84.1288 87.2224 97.9189 106.772 106.959 113.682C115.999 120.592 119.699 123.162 136.729 127.562C153.319 131.762 162.429 134.332 174.639 140.752Z" fill="url(#paint9_linear_130_2556)" shape-rendering="crispEdges"/>
</g>
<g filter="url(#filter10_d_130_2556)">
<path d="M130.769 159.072C131.149 158.892 130.999 158.492 130.689 158.192C128.839 156.272 110.849 151.472 95.9488 130.042C80.5388 108.152 71.9488 79.2123 52.7188 69.6523C52.7188 69.7023 49.4688 69.0723 56.9988 78.0423C64.5288 87.2323 64.1888 86.7823 72.7588 109.942C81.3288 133.102 91.8688 145.732 91.8688 145.702C91.8688 145.672 101.569 157.462 108.549 159.122C109.589 159.332 124.749 161.892 130.769 159.072Z" fill="url(#paint10_linear_130_2556)" shape-rendering="crispEdges"/>
</g>
<g filter="url(#filter11_d_130_2556)">
<path d="M53.1089 57.6918C53.5089 57.6918 53.7589 57.1318 53.5489 56.6918C51.1989 54.0918 39.5989 28.7818 11.7989 32.0718C11.4589 32.1418 11.0689 32.8218 11.2289 33.0718C14.0389 37.7418 23.2089 54.3318 53.1089 57.6918Z" fill="url(#paint11_linear_130_2556)" shape-rendering="crispEdges"/>
</g>
<g filter="url(#filter12_d_130_2556)">
<path d="M63.2589 116.613C63.3573 116.597 63.4506 116.559 63.531 116.5C63.6113 116.441 63.6763 116.364 63.7205 116.275C63.7646 116.185 63.7866 116.087 63.7846 115.987C63.7825 115.888 63.7566 115.79 63.7089 115.703C62.2489 112.923 55.4688 97.7825 32.4088 86.4625C14.0488 78.6325 6.48886 80.5625 4.67886 79.3625C4.40886 79.2425 3.92888 79.7925 4.00888 80.1225C4.61888 83.2925 8.00883 86.8725 25.5288 99.1225C45.6488 114.603 59.8689 117.143 63.2589 116.613Z" fill="url(#paint12_linear_130_2556)" shape-rendering="crispEdges"/>
</g>
<g filter="url(#filter13_d_130_2556)">
<path d="M126.739 199.693C126.739 199.413 111.839 201.813 93.7389 175.453C93.7389 175.453 89.8789 170.453 85.3489 158.283C80.8189 146.113 68.3489 133.333 59.8689 131.533C59.8689 131.463 71.2289 144.533 77.2989 165.533C83.3689 186.533 95.8489 197.533 95.8489 197.533C95.8489 197.533 102.909 203.533 110.529 203.213C118.149 202.893 126.739 199.673 126.739 199.693Z" fill="url(#paint13_linear_130_2556)" shape-rendering="crispEdges"/>
</g>
<g filter="url(#filter14_d_130_2556)">
<path d="M77.2888 185.012C77.2888 185.072 71.8888 164.762 55.9888 156.152C40.0888 147.542 27.9888 132.292 27.9888 132.462C27.9888 132.632 25.8887 140.922 39.4687 161.132C53.0087 181.872 77.2888 185.212 77.2888 185.012Z" fill="url(#paint14_linear_130_2556)" shape-rendering="crispEdges"/>
</g>
<g filter="url(#filter15_d_130_2556)">
<path d="M69.7889 195.162C76.0789 194.552 86.1189 201.522 94.2889 210.312C102.459 219.312 116.289 227.392 116.289 227.312C136.289 234.932 146.839 232.312 146.839 232.492C146.839 232.392 144.839 243.302 128.959 239.492C119.295 237.013 110.34 232.323 102.799 225.792C102.799 225.952 90.6589 213.002 88.8889 210.942C87.1289 209.092 80.2789 200.732 73.4389 198.412C66.5989 196.092 69.7889 195.152 69.7889 195.162Z" fill="url(#paint15_linear_130_2556)" shape-rendering="crispEdges"/>
</g>
<g filter="url(#filter16_d_130_2556)">
<path d="M316.009 279.492C316.009 278.852 328.729 256.282 323.799 239.102C320.84 228.509 316.492 218.354 310.869 208.902C310.869 208.702 305.139 202.902 298.139 178.902C291.139 153.832 299.749 140.412 299.749 140.902C299.749 140.902 303.069 132.072 323.249 120.242C343.429 108.412 355.009 106.082 355.009 106.152C355.009 107.032 327.609 120.272 320.609 143.492C313.609 167.742 319.699 180.932 319.699 180.692C319.699 180.692 322.329 191.252 333.699 206.692C345.069 222.132 344.589 234.132 344.589 234.122C344.589 234.112 344.009 244.672 335.069 255.862C326.129 267.052 316.929 278.842 316.009 279.492Z" fill="url(#paint16_linear_130_2556)" shape-rendering="crispEdges"/>
</g>
<g filter="url(#filter17_d_130_2556)">
<path d="M325.189 155.392C325.189 155.302 326.689 142.212 344.629 126.652C355.589 117.233 367.634 109.156 380.509 102.592C380.509 104.402 424.589 69.4919 427.689 53.2119C423.222 72.9928 414.451 91.5462 401.999 107.552C381.179 133.372 366.779 136.792 366.779 137.132C366.779 137.132 354.369 141.442 345.069 143.552C335.769 145.662 325.189 155.332 325.189 155.392Z" fill="url(#paint17_linear_130_2556)" shape-rendering="crispEdges"/>
</g>
<g filter="url(#filter18_d_130_2556)">
<path d="M327.329 171.162C326.329 171.302 325.569 170.462 325.989 169.702C328.869 164.422 344.099 157.372 350.079 155.062C367.469 148.652 390.779 145.892 390.779 145.852C390.779 145.922 415.539 144.062 425.099 141.292C432.859 139.102 444.319 136.492 448.299 134.422C448.919 134.092 449.999 134.422 449.719 135.102C448.559 137.882 440.849 146.592 423.219 152.852C399.029 161.292 376.439 159.342 376.439 159.472C357.949 158.752 349.519 161.272 345.839 163.122C342.159 164.972 339.199 165.852 334.309 168.612C332.156 169.878 329.791 170.742 327.329 171.162V171.162Z" fill="url(#paint18_linear_130_2556)" shape-rendering="crispEdges"/>
</g>
<g filter="url(#filter19_d_130_2556)">
<path d="M336.949 185.132C336.949 185.132 326.069 184.922 330.949 176.712C335.829 168.502 359.079 166.712 359.079 166.712C359.079 166.802 377.269 164.142 403.719 167.252C430.159 170.642 450.799 170.472 455.719 168.682C455.719 168.942 439.519 190.942 427.719 193.432C415.939 196.432 408.059 196.062 393.429 190.352C378.799 184.642 368.859 180.972 358.549 181.962C348.239 182.952 339.569 185.482 336.949 185.132Z" fill="url(#paint19_linear_130_2556)" shape-rendering="crispEdges"/>
</g>
<g filter="url(#filter20_d_130_2556)">
<path d="M337.509 196.872C337.509 196.872 328.689 190.722 340.319 189.142C351.949 187.742 358.719 187.012 376.439 191.142C394.159 195.272 410.279 205.222 410.279 205.292C410.279 205.172 421.719 211.212 446.279 212.642C446.279 212.392 453.219 215.852 426.779 221.242C400.329 225.512 379.699 216.652 379.699 217.052C379.709 216.662 352.869 209.242 337.509 196.872Z" fill="url(#paint20_linear_130_2556)" shape-rendering="crispEdges"/>
</g>
<g filter="url(#filter21_d_130_2556)">
<path d="M356.869 220.582C356.869 220.582 353.299 217.842 358.559 219.082C363.809 220.082 380.309 230.412 380.309 230.642C380.309 230.252 401.509 245.342 415.569 248.542C429.639 251.222 435.639 249.682 435.639 249.662C435.639 249.642 441.079 249.862 437.329 252.802C433.579 255.922 422.889 264.252 404.879 259.352C386.879 254.952 383.689 250.112 374.499 238.162C365.269 226.552 363.019 224.132 356.869 220.582Z" fill="url(#paint21_linear_130_2556)" shape-rendering="crispEdges"/>
</g>
<g filter="url(#filter22_d_130_2556)">
<path d="M355.959 236.512C355.849 236.182 356.279 235.912 356.629 236.112C358.709 237.302 363.879 240.752 370.329 249.962C378.769 262.162 379.559 266.142 382.899 270.482C385.639 274.192 389.649 277.842 401.729 283.982C402.249 284.262 402.239 284.982 401.729 284.982C397.659 284.742 384.729 282.982 376.149 277.872C376.149 277.762 365.989 272.052 363.019 259.612C361.089 251.332 357.109 239.752 355.959 236.512Z" fill="url(#paint22_linear_130_2556)" shape-rendering="crispEdges"/>
</g>
<g filter="url(#filter23_d_130_2556)">
<path d="M348.869 252.432C348.924 252.343 349.003 252.272 349.097 252.225C349.191 252.179 349.296 252.16 349.4 252.171C349.504 252.181 349.603 252.221 349.686 252.284C349.769 252.348 349.832 252.434 349.869 252.532C350.619 255.752 352.869 265.602 355.039 269.852C357.689 275.032 361.219 281.262 368.119 285.702C374.599 290.012 377.119 291.482 383.579 295.762C384.099 296.122 384.149 296.762 383.649 296.842C380.329 297.382 370.299 297.652 358.809 293.962C344.609 289.962 344.689 272.422 344.689 272.112C344.639 272.122 345.449 257.742 348.869 252.432Z" fill="url(#paint23_linear_130_2556)" shape-rendering="crispEdges"/>
</g>
<g filter="url(#filter24_d_130_2556)">
<path d="M422.549 94.6922C422.059 94.9522 421.649 94.5522 421.879 94.0522C424.539 88.6122 435.959 65.2522 444.959 53.7822C457.509 37.5022 494.149 4.62222 503.959 0.0922198C504.499 -0.26778 505.079 0.50222 504.719 1.09222C500.149 8.39222 485.209 33.7922 471.189 50.5222C454.639 70.0922 442.869 84.1222 422.549 94.6922Z" fill="url(#paint24_linear_130_2556)" shape-rendering="crispEdges"/>
</g>
<g filter="url(#filter25_d_130_2556)">
<path d="M388.759 140.752C388.399 140.942 388.009 140.682 388.139 140.332C389.639 136.232 396.999 120.542 420.429 107.262C447.309 91.7524 458.319 84.5624 465.959 76.2024C473.609 67.2824 497.959 41.8924 497.959 42.4324C497.959 42.3424 506.649 33.5824 509.079 33.7324C511.509 33.8824 512.439 34.7924 510.079 38.9524C507.759 42.8824 494.779 64.8224 487.019 76.1124C479.259 87.2224 465.469 106.772 456.429 113.682C447.389 120.592 443.689 123.162 426.659 127.562C410.079 131.762 400.969 134.332 388.759 140.752Z" fill="url(#paint25_linear_130_2556)" shape-rendering="crispEdges"/>
</g>
<g filter="url(#filter26_d_130_2556)">
<path d="M432.629 159.072C432.249 158.892 432.399 158.492 432.709 158.192C434.559 156.272 452.549 151.472 467.449 130.042C482.859 108.152 491.449 79.2123 510.679 69.6523C510.679 69.7023 513.929 69.0723 506.399 78.0423C498.869 87.2323 499.209 86.7823 490.639 109.942C482.069 133.102 471.529 145.732 471.529 145.702C471.529 145.672 461.869 157.462 454.869 159.122C453.809 159.332 438.649 161.892 432.629 159.072Z" fill="url(#paint26_linear_130_2556)" shape-rendering="crispEdges"/>
</g>
<g filter="url(#filter27_d_130_2556)">
<path d="M510.289 57.6918C509.889 57.6918 509.639 57.1318 509.849 56.6918C512.199 54.0918 523.849 28.7818 551.599 32.0718C551.939 32.1418 552.329 32.8218 552.169 33.0718C549.359 37.7418 540.189 54.3318 510.289 57.6918Z" fill="url(#paint27_linear_130_2556)" shape-rendering="crispEdges"/>
</g>
<g filter="url(#filter28_d_130_2556)">
<path d="M500.139 116.613C500.04 116.597 499.947 116.559 499.867 116.5C499.786 116.441 499.721 116.364 499.677 116.275C499.633 116.185 499.611 116.087 499.613 115.987C499.615 115.888 499.641 115.79 499.689 115.703C501.149 112.923 507.929 97.7825 530.989 86.4625C549.349 78.6325 556.909 80.5625 558.729 79.3625C558.989 79.2425 559.469 79.7925 559.389 80.1225C558.779 83.2925 555.389 86.8725 537.869 99.1225C517.749 114.603 503.539 117.143 500.139 116.613Z" fill="url(#paint28_linear_130_2556)" shape-rendering="crispEdges"/>
</g>
<g filter="url(#filter29_d_130_2556)">
<path d="M436.659 199.693C436.659 199.413 451.559 201.813 469.659 175.453C469.659 175.453 473.519 170.453 478.049 158.283C482.579 146.113 495.049 133.333 503.539 131.533C503.539 131.463 492.179 144.533 486.109 165.533C480.039 186.533 467.559 197.533 467.559 197.533C467.559 197.533 460.499 203.533 452.889 203.213C445.279 202.893 436.659 199.673 436.659 199.693Z" fill="url(#paint29_linear_130_2556)" shape-rendering="crispEdges"/>
</g>
<g filter="url(#filter30_d_130_2556)">
<path d="M486.109 185.012C486.109 185.072 491.509 164.762 507.409 156.152C523.309 147.542 535.409 132.292 535.409 132.462C535.409 132.632 537.509 140.922 523.929 161.132C510.389 181.872 486.109 185.212 486.109 185.012Z" fill="url(#paint30_linear_130_2556)" shape-rendering="crispEdges"/>
</g>
<g filter="url(#filter31_d_130_2556)">
<path d="M493.609 195.162C487.319 194.552 477.279 201.522 469.109 210.312C460.939 219.312 447.109 227.392 447.109 227.312C427.109 234.932 416.559 232.312 416.559 232.492C416.559 232.392 418.559 243.302 434.439 239.492C444.102 237.013 453.058 232.323 460.599 225.792C460.599 225.952 472.739 213.002 474.509 210.942C476.269 209.092 483.119 200.732 489.959 198.412C496.799 196.092 493.609 195.152 493.609 195.162Z" fill="url(#paint31_linear_130_2556)" shape-rendering="crispEdges"/>
</g>
<path d="M250.734 261.902C250.018 261.837 249.66 261.316 249.66 260.34V252.186C249.66 251.665 249.758 251.307 249.953 251.111C250.181 250.916 250.572 250.802 251.125 250.77L255.617 250.965L274.953 188.27C275.148 187.651 275.539 187.309 276.125 187.244L287.209 186.854C287.795 186.886 288.202 187.26 288.43 187.977L309.523 250.623L313.967 250.477C314.878 250.542 315.334 251.062 315.334 252.039V259.754C315.334 260.307 315.22 260.665 314.992 260.828C314.764 260.991 314.374 261.072 313.82 261.072H291.213C290.627 261.072 290.285 260.942 290.188 260.682C290.09 260.421 290.041 260.063 290.041 259.607L291.018 252.479C291.083 251.925 291.213 251.567 291.408 251.404C291.604 251.209 291.962 251.111 292.482 251.111L298.049 250.965L293.85 237.977L269.68 237.488L265.725 251.648L271.633 251.062C272.023 251.062 272.284 251.144 272.414 251.307C272.577 251.469 272.691 251.762 272.756 252.186L273.488 259.607C273.423 260.161 273.277 260.535 273.049 260.73C272.854 260.926 272.512 261.04 272.023 261.072L250.734 261.902ZM271.975 229.188H290.969L280.715 197.791L271.975 229.188Z" fill="url(#paint32_linear_130_2556)"/>
<defs>
<filter id="filter0_d_130_2556" x="204.409" y="106.15" width="67.6123" height="181.342" filterUnits="userSpaceOnUse" color-interpolation-filters="sRGB">
<feFlood flood-opacity="0" result="BackgroundImageFix"/>
<feColorMatrix in="SourceAlpha" type="matrix" values="0 0 0 0 0 0 0 0 0 0 0 0 0 0 0 0 0 0 127 0" result="hardAlpha"/>
<feOffset dy="4"/>
<feGaussianBlur stdDeviation="2"/>
<feComposite in2="hardAlpha" operator="out"/>
<feColorMatrix type="matrix" values="0 0 0 0 0.0264931 0 0 0 0 0.0949209 0 0 0 0 0.454167 0 0 0 1 0"/>
<feBlend mode="normal" in2="BackgroundImageFix" result="effect1_dropShadow_130_2556"/>
<feBlend mode="normal" in="SourceGraphic" in2="effect1_dropShadow_130_2556" result="shape"/>
</filter>
<filter id="filter1_d_130_2556" x="131.689" y="53.2119" width="110.52" height="110.18" filterUnits="userSpaceOnUse" color-interpolation-filters="sRGB">
<feFlood flood-opacity="0" result="BackgroundImageFix"/>
<feColorMatrix in="SourceAlpha" type="matrix" values="0 0 0 0 0 0 0 0 0 0 0 0 0 0 0 0 0 0 127 0" result="hardAlpha"/>
<feOffset dy="4"/>
<feGaussianBlur stdDeviation="2"/>
<feComposite in2="hardAlpha" operator="out"/>
<feColorMatrix type="matrix" values="0 0 0 0 0.0264931 0 0 0 0 0.0949209 0 0 0 0 0.454167 0 0 0 1 0"/>
<feBlend mode="normal" in2="BackgroundImageFix" result="effect1_dropShadow_130_2556"/>
<feBlend mode="normal" in="SourceGraphic" in2="effect1_dropShadow_130_2556" result="shape"/>
</filter>
<filter id="filter2_d_130_2556" x="109.633" y="134.293" width="131.894" height="44.8848" filterUnits="userSpaceOnUse" color-interpolation-filters="sRGB">
<feFlood flood-opacity="0" result="BackgroundImageFix"/>
<feColorMatrix in="SourceAlpha" type="matrix" values="0 0 0 0 0 0 0 0 0 0 0 0 0 0 0 0 0 0 127 0" result="hardAlpha"/>
<feOffset dy="4"/>
<feGaussianBlur stdDeviation="2"/>
<feComposite in2="hardAlpha" operator="out"/>
<feColorMatrix type="matrix" values="0 0 0 0 0.0264931 0 0 0 0 0.0949209 0 0 0 0 0.454167 0 0 0 1 0"/>
<feBlend mode="normal" in2="BackgroundImageFix" result="effect1_dropShadow_130_2556"/>
<feBlend mode="normal" in="SourceGraphic" in2="effect1_dropShadow_130_2556" result="shape"/>
</filter>
<filter id="filter3_d_130_2556" x="103.729" y="165.738" width="133.979" height="37.5498" filterUnits="userSpaceOnUse" color-interpolation-filters="sRGB">
<feFlood flood-opacity="0" result="BackgroundImageFix"/>
<feColorMatrix in="SourceAlpha" type="matrix" values="0 0 0 0 0 0 0 0 0 0 0 0 0 0 0 0 0 0 127 0" result="hardAlpha"/>
<feOffset dy="4"/>
<feGaussianBlur stdDeviation="2"/>
<feComposite in2="hardAlpha" operator="out"/>
<feColorMatrix type="matrix" values="0 0 0 0 0.0264931 0 0 0 0 0.0949209 0 0 0 0 0.454167 0 0 0 1 0"/>
<feBlend mode="normal" in2="BackgroundImageFix" result="effect1_dropShadow_130_2556"/>
<feBlend mode="normal" in="SourceGraphic" in2="effect1_dropShadow_130_2556" result="shape"/>
</filter>
<filter id="filter4_d_130_2556" x="112.276" y="188.04" width="120.796" height="42.3682" filterUnits="userSpaceOnUse" color-interpolation-filters="sRGB">
<feFlood flood-opacity="0" result="BackgroundImageFix"/>
<feColorMatrix in="SourceAlpha" type="matrix" values="0 0 0 0 0 0 0 0 0 0 0 0 0 0 0 0 0 0 127 0" result="hardAlpha"/>
<feOffset dy="4"/>
<feGaussianBlur stdDeviation="2"/>
<feComposite in2="hardAlpha" operator="out"/>
<feColorMatrix type="matrix" values="0 0 0 0 0.0264931 0 0 0 0 0.0949209 0 0 0 0 0.454167 0 0 0 1 0"/>
<feBlend mode="normal" in2="BackgroundImageFix" result="effect1_dropShadow_130_2556"/>
<feBlend mode="normal" in="SourceGraphic" in2="effect1_dropShadow_130_2556" result="shape"/>
</filter>
<filter id="filter5_d_130_2556" x="120.79" y="218.76" width="90.9623" height="50.1016" filterUnits="userSpaceOnUse" color-interpolation-filters="sRGB">
<feFlood flood-opacity="0" result="BackgroundImageFix"/>
<feColorMatrix in="SourceAlpha" type="matrix" values="0 0 0 0 0 0 0 0 0 0 0 0 0 0 0 0 0 0 127 0" result="hardAlpha"/>
<feOffset dy="4"/>
<feGaussianBlur stdDeviation="2"/>
<feComposite in2="hardAlpha" operator="out"/>
<feColorMatrix type="matrix" values="0 0 0 0 0.0264931 0 0 0 0 0.0949209 0 0 0 0 0.454167 0 0 0 1 0"/>
<feBlend mode="normal" in2="BackgroundImageFix" result="effect1_dropShadow_130_2556"/>
<feBlend mode="normal" in="SourceGraphic" in2="effect1_dropShadow_130_2556" result="shape"/>
</filter>
<filter id="filter6_d_130_2556" x="157.283" y="236.044" width="54.1738" height="56.9385" filterUnits="userSpaceOnUse" color-interpolation-filters="sRGB">
<feFlood flood-opacity="0" result="BackgroundImageFix"/>
<feColorMatrix in="SourceAlpha" type="matrix" values="0 0 0 0 0 0 0 0 0 0 0 0 0 0 0 0 0 0 127 0" result="hardAlpha"/>
<feOffset dy="4"/>
<feGaussianBlur stdDeviation="2"/>
<feComposite in2="hardAlpha" operator="out"/>
<feColorMatrix type="matrix" values="0 0 0 0 0.0264931 0 0 0 0 0.0949209 0 0 0 0 0.454167 0 0 0 1 0"/>
<feBlend mode="normal" in2="BackgroundImageFix" result="effect1_dropShadow_130_2556"/>
<feBlend mode="normal" in="SourceGraphic" in2="effect1_dropShadow_130_2556" result="shape"/>
</filter>
<filter id="filter7_d_130_2556" x="175.44" y="252.168" width="47.3089" height="52.9883" filterUnits="userSpaceOnUse" color-interpolation-filters="sRGB">
<feFlood flood-opacity="0" result="BackgroundImageFix"/>
<feColorMatrix in="SourceAlpha" type="matrix" values="0 0 0 0 0 0 0 0 0 0 0 0 0 0 0 0 0 0 127 0" result="hardAlpha"/>
<feOffset dy="4"/>
<feGaussianBlur stdDeviation="2"/>
<feComposite in2="hardAlpha" operator="out"/>
<feColorMatrix type="matrix" values="0 0 0 0 0.0264931 0 0 0 0 0.0949209 0 0 0 0 0.454167 0 0 0 1 0"/>
<feBlend mode="normal" in2="BackgroundImageFix" result="effect1_dropShadow_130_2556"/>
<feBlend mode="normal" in="SourceGraphic" in2="effect1_dropShadow_130_2556" result="shape"/>
</filter>
<filter id="filter8_d_130_2556" x="54.5771" y="0" width="91.0311" height="102.774" filterUnits="userSpaceOnUse" color-interpolation-filters="sRGB">
<feFlood flood-opacity="0" result="BackgroundImageFix"/>
<feColorMatrix in="SourceAlpha" type="matrix" values="0 0 0 0 0 0 0 0 0 0 0 0 0 0 0 0 0 0 127 0" result="hardAlpha"/>
<feOffset dy="4"/>
<feGaussianBlur stdDeviation="2"/>
<feComposite in2="hardAlpha" operator="out"/>
<feColorMatrix type="matrix" values="0 0 0 0 0.0264931 0 0 0 0 0.0949209 0 0 0 0 0.454167 0 0 0 1 0"/>
<feBlend mode="normal" in2="BackgroundImageFix" result="effect1_dropShadow_130_2556"/>
<feBlend mode="normal" in="SourceGraphic" in2="effect1_dropShadow_130_2556" result="shape"/>
</filter>
<filter id="filter9_d_130_2556" x="47.9514" y="33.7305" width="131.333" height="115.086" filterUnits="userSpaceOnUse" color-interpolation-filters="sRGB">
<feFlood flood-opacity="0" result="BackgroundImageFix"/>
<feColorMatrix in="SourceAlpha" type="matrix" values="0 0 0 0 0 0 0 0 0 0 0 0 0 0 0 0 0 0 127 0" result="hardAlpha"/>
<feOffset dy="4"/>
<feGaussianBlur stdDeviation="2"/>
<feComposite in2="hardAlpha" operator="out"/>
<feColorMatrix type="matrix" values="0 0 0 0 0.0264931 0 0 0 0 0.0949209 0 0 0 0 0.454167 0 0 0 1 0"/>
<feBlend mode="normal" in2="BackgroundImageFix" result="effect1_dropShadow_130_2556"/>
<feBlend mode="normal" in="SourceGraphic" in2="effect1_dropShadow_130_2556" result="shape"/>
</filter>
<filter id="filter10_d_130_2556" x="48.0212" y="69.6523" width="86.9733" height="98.7354" filterUnits="userSpaceOnUse" color-interpolation-filters="sRGB">
<feFlood flood-opacity="0" result="BackgroundImageFix"/>
<feColorMatrix in="SourceAlpha" type="matrix" values="0 0 0 0 0 0 0 0 0 0 0 0 0 0 0 0 0 0 127 0" result="hardAlpha"/>
<feOffset dy="4"/>
<feGaussianBlur stdDeviation="2"/>
<feComposite in2="hardAlpha" operator="out"/>
<feColorMatrix type="matrix" values="0 0 0 0 0.0264931 0 0 0 0 0.0949209 0 0 0 0 0.454167 0 0 0 1 0"/>
<feBlend mode="normal" in2="BackgroundImageFix" result="effect1_dropShadow_130_2556"/>
<feBlend mode="normal" in="SourceGraphic" in2="effect1_dropShadow_130_2556" result="shape"/>
</filter>
<filter id="filter11_d_130_2556" x="7.19189" y="31.7773" width="50.4331" height="33.9141" filterUnits="userSpaceOnUse" color-interpolation-filters="sRGB">
<feFlood flood-opacity="0" result="BackgroundImageFix"/>
<feColorMatrix in="SourceAlpha" type="matrix" values="0 0 0 0 0 0 0 0 0 0 0 0 0 0 0 0 0 0 127 0" result="hardAlpha"/>
<feOffset dy="4"/>
<feGaussianBlur stdDeviation="2"/>
<feComposite in2="hardAlpha" operator="out"/>
<feColorMatrix type="matrix" values="0 0 0 0 0.0264931 0 0 0 0 0.0949209 0 0 0 0 0.454167 0 0 0 1 0"/>
<feBlend mode="normal" in2="BackgroundImageFix" result="effect1_dropShadow_130_2556"/>
<feBlend mode="normal" in="SourceGraphic" in2="effect1_dropShadow_130_2556" result="shape"/>
</filter>
<filter id="filter12_d_130_2556" x="0" y="79.3457" width="67.7847" height="45.3301" filterUnits="userSpaceOnUse" color-interpolation-filters="sRGB">
<feFlood flood-opacity="0" result="BackgroundImageFix"/>
<feColorMatrix in="SourceAlpha" type="matrix" values="0 0 0 0 0 0 0 0 0 0 0 0 0 0 0 0 0 0 127 0" result="hardAlpha"/>
<feOffset dy="4"/>
<feGaussianBlur stdDeviation="2"/>
<feComposite in2="hardAlpha" operator="out"/>
<feColorMatrix type="matrix" values="0 0 0 0 0.0264931 0 0 0 0 0.0949209 0 0 0 0 0.454167 0 0 0 1 0"/>
<feBlend mode="normal" in2="BackgroundImageFix" result="effect1_dropShadow_130_2556"/>
<feBlend mode="normal" in="SourceGraphic" in2="effect1_dropShadow_130_2556" result="shape"/>
</filter>
<filter id="filter13_d_130_2556" x="55.8689" y="131.532" width="74.87" height="79.6924" filterUnits="userSpaceOnUse" color-interpolation-filters="sRGB">
<feFlood flood-opacity="0" result="BackgroundImageFix"/>
<feColorMatrix in="SourceAlpha" type="matrix" values="0 0 0 0 0 0 0 0 0 0 0 0 0 0 0 0 0 0 127 0" result="hardAlpha"/>
<feOffset dy="4"/>
<feGaussianBlur stdDeviation="2"/>
<feComposite in2="hardAlpha" operator="out"/>
<feColorMatrix type="matrix" values="0 0 0 0 0.0264931 0 0 0 0 0.0949209 0 0 0 0 0.454167 0 0 0 1 0"/>
<feBlend mode="normal" in2="BackgroundImageFix" result="effect1_dropShadow_130_2556"/>
<feBlend mode="normal" in="SourceGraphic" in2="effect1_dropShadow_130_2556" result="shape"/>
</filter>
<filter id="filter14_d_130_2556" x="23.8716" y="132.461" width="57.4172" height="60.5596" filterUnits="userSpaceOnUse" color-interpolation-filters="sRGB">
<feFlood flood-opacity="0" result="BackgroundImageFix"/>
<feColorMatrix in="SourceAlpha" type="matrix" values="0 0 0 0 0 0 0 0 0 0 0 0 0 0 0 0 0 0 127 0" result="hardAlpha"/>
<feOffset dy="4"/>
<feGaussianBlur stdDeviation="2"/>
<feComposite in2="hardAlpha" operator="out"/>
<feColorMatrix type="matrix" values="0 0 0 0 0.0264931 0 0 0 0 0.0949209 0 0 0 0 0.454167 0 0 0 1 0"/>
<feBlend mode="normal" in2="BackgroundImageFix" result="effect1_dropShadow_130_2556"/>
<feBlend mode="normal" in="SourceGraphic" in2="effect1_dropShadow_130_2556" result="shape"/>
</filter>
<filter id="filter15_d_130_2556" x="65.0459" y="195.125" width="85.7929" height="53.1748" filterUnits="userSpaceOnUse" color-interpolation-filters="sRGB">
<feFlood flood-opacity="0" result="BackgroundImageFix"/>
<feColorMatrix in="SourceAlpha" type="matrix" values="0 0 0 0 0 0 0 0 0 0 0 0 0 0 0 0 0 0 127 0" result="hardAlpha"/>
<feOffset dy="4"/>
<feGaussianBlur stdDeviation="2"/>
<feComposite in2="hardAlpha" operator="out"/>
<feColorMatrix type="matrix" values="0 0 0 0 0.0264931 0 0 0 0 0.0949209 0 0 0 0 0.454167 0 0 0 1 0"/>
<feBlend mode="normal" in2="BackgroundImageFix" result="effect1_dropShadow_130_2556"/>
<feBlend mode="normal" in="SourceGraphic" in2="effect1_dropShadow_130_2556" result="shape"/>
</filter>
<filter id="filter16_d_130_2556" x="291.396" y="106.15" width="67.6123" height="181.342" filterUnits="userSpaceOnUse" color-interpolation-filters="sRGB">
<feFlood flood-opacity="0" result="BackgroundImageFix"/>
<feColorMatrix in="SourceAlpha" type="matrix" values="0 0 0 0 0 0 0 0 0 0 0 0 0 0 0 0 0 0 127 0" result="hardAlpha"/>
<feOffset dy="4"/>
<feGaussianBlur stdDeviation="2"/>
<feComposite in2="hardAlpha" operator="out"/>
<feColorMatrix type="matrix" values="0 0 0 0 0.0264931 0 0 0 0 0.0949209 0 0 0 0 0.454167 0 0 0 1 0"/>
<feBlend mode="normal" in2="BackgroundImageFix" result="effect1_dropShadow_130_2556"/>
<feBlend mode="normal" in="SourceGraphic" in2="effect1_dropShadow_130_2556" result="shape"/>
</filter>
<filter id="filter17_d_130_2556" x="321.189" y="53.2119" width="110.5" height="110.18" filterUnits="userSpaceOnUse" color-interpolation-filters="sRGB">
<feFlood flood-opacity="0" result="BackgroundImageFix"/>
<feColorMatrix in="SourceAlpha" type="matrix" values="0 0 0 0 0 0 0 0 0 0 0 0 0 0 0 0 0 0 127 0" result="hardAlpha"/>
<feOffset dy="4"/>
<feGaussianBlur stdDeviation="2"/>
<feComposite in2="hardAlpha" operator="out"/>
<feColorMatrix type="matrix" values="0 0 0 0 0.0264931 0 0 0 0 0.0949209 0 0 0 0 0.454167 0 0 0 1 0"/>
<feBlend mode="normal" in2="BackgroundImageFix" result="effect1_dropShadow_130_2556"/>
<feBlend mode="normal" in="SourceGraphic" in2="effect1_dropShadow_130_2556" result="shape"/>
</filter>
<filter id="filter18_d_130_2556" x="321.871" y="134.293" width="131.894" height="44.8848" filterUnits="userSpaceOnUse" color-interpolation-filters="sRGB">
<feFlood flood-opacity="0" result="BackgroundImageFix"/>
<feColorMatrix in="SourceAlpha" type="matrix" values="0 0 0 0 0 0 0 0 0 0 0 0 0 0 0 0 0 0 127 0" result="hardAlpha"/>
<feOffset dy="4"/>
<feGaussianBlur stdDeviation="2"/>
<feComposite in2="hardAlpha" operator="out"/>
<feColorMatrix type="matrix" values="0 0 0 0 0.0264931 0 0 0 0 0.0949209 0 0 0 0 0.454167 0 0 0 1 0"/>
<feBlend mode="normal" in2="BackgroundImageFix" result="effect1_dropShadow_130_2556"/>
<feBlend mode="normal" in="SourceGraphic" in2="effect1_dropShadow_130_2556" result="shape"/>
</filter>
<filter id="filter19_d_130_2556" x="325.69" y="165.738" width="134.029" height="37.5498" filterUnits="userSpaceOnUse" color-interpolation-filters="sRGB">
<feFlood flood-opacity="0" result="BackgroundImageFix"/>
<feColorMatrix in="SourceAlpha" type="matrix" values="0 0 0 0 0 0 0 0 0 0 0 0 0 0 0 0 0 0 127 0" result="hardAlpha"/>
<feOffset dy="4"/>
<feGaussianBlur stdDeviation="2"/>
<feComposite in2="hardAlpha" operator="out"/>
<feColorMatrix type="matrix" values="0 0 0 0 0.0264931 0 0 0 0 0.0949209 0 0 0 0 0.454167 0 0 0 1 0"/>
<feBlend mode="normal" in2="BackgroundImageFix" result="effect1_dropShadow_130_2556"/>
<feBlend mode="normal" in="SourceGraphic" in2="effect1_dropShadow_130_2556" result="shape"/>
</filter>
<filter id="filter20_d_130_2556" x="330.305" y="188.04" width="120.796" height="42.3682" filterUnits="userSpaceOnUse" color-interpolation-filters="sRGB">
<feFlood flood-opacity="0" result="BackgroundImageFix"/>
<feColorMatrix in="SourceAlpha" type="matrix" values="0 0 0 0 0 0 0 0 0 0 0 0 0 0 0 0 0 0 127 0" result="hardAlpha"/>
<feOffset dy="4"/>
<feGaussianBlur stdDeviation="2"/>
<feComposite in2="hardAlpha" operator="out"/>
<feColorMatrix type="matrix" values="0 0 0 0 0.0264931 0 0 0 0 0.0949209 0 0 0 0 0.454167 0 0 0 1 0"/>
<feBlend mode="normal" in2="BackgroundImageFix" result="effect1_dropShadow_130_2556"/>
<feBlend mode="normal" in="SourceGraphic" in2="effect1_dropShadow_130_2556" result="shape"/>
</filter>
<filter id="filter21_d_130_2556" x="351.685" y="218.76" width="90.9622" height="50.1016" filterUnits="userSpaceOnUse" color-interpolation-filters="sRGB">
<feFlood flood-opacity="0" result="BackgroundImageFix"/>
<feColorMatrix in="SourceAlpha" type="matrix" values="0 0 0 0 0 0 0 0 0 0 0 0 0 0 0 0 0 0 127 0" result="hardAlpha"/>
<feOffset dy="4"/>
<feGaussianBlur stdDeviation="2"/>
<feComposite in2="hardAlpha" operator="out"/>
<feColorMatrix type="matrix" values="0 0 0 0 0.0264931 0 0 0 0 0.0949209 0 0 0 0 0.454167 0 0 0 1 0"/>
<feBlend mode="normal" in2="BackgroundImageFix" result="effect1_dropShadow_130_2556"/>
<feBlend mode="normal" in="SourceGraphic" in2="effect1_dropShadow_130_2556" result="shape"/>
</filter>
<filter id="filter22_d_130_2556" x="351.941" y="236.044" width="54.1737" height="56.9385" filterUnits="userSpaceOnUse" color-interpolation-filters="sRGB">
<feFlood flood-opacity="0" result="BackgroundImageFix"/>
<feColorMatrix in="SourceAlpha" type="matrix" values="0 0 0 0 0 0 0 0 0 0 0 0 0 0 0 0 0 0 127 0" result="hardAlpha"/>
<feOffset dy="4"/>
<feGaussianBlur stdDeviation="2"/>
<feComposite in2="hardAlpha" operator="out"/>
<feColorMatrix type="matrix" values="0 0 0 0 0.0264931 0 0 0 0 0.0949209 0 0 0 0 0.454167 0 0 0 1 0"/>
<feBlend mode="normal" in2="BackgroundImageFix" result="effect1_dropShadow_130_2556"/>
<feBlend mode="normal" in="SourceGraphic" in2="effect1_dropShadow_130_2556" result="shape"/>
</filter>
<filter id="filter23_d_130_2556" x="340.687" y="252.168" width="47.311" height="52.9883" filterUnits="userSpaceOnUse" color-interpolation-filters="sRGB">
<feFlood flood-opacity="0" result="BackgroundImageFix"/>
<feColorMatrix in="SourceAlpha" type="matrix" values="0 0 0 0 0 0 0 0 0 0 0 0 0 0 0 0 0 0 127 0" result="hardAlpha"/>
<feOffset dy="4"/>
<feGaussianBlur stdDeviation="2"/>
<feComposite in2="hardAlpha" operator="out"/>
<feColorMatrix type="matrix" values="0 0 0 0 0.0264931 0 0 0 0 0.0949209 0 0 0 0 0.454167 0 0 0 1 0"/>
<feBlend mode="normal" in2="BackgroundImageFix" result="effect1_dropShadow_130_2556"/>
<feBlend mode="normal" in="SourceGraphic" in2="effect1_dropShadow_130_2556" result="shape"/>
</filter>
<filter id="filter24_d_130_2556" x="417.813" y="0" width="91.0172" height="102.774" filterUnits="userSpaceOnUse" color-interpolation-filters="sRGB">
<feFlood flood-opacity="0" result="BackgroundImageFix"/>
<feColorMatrix in="SourceAlpha" type="matrix" values="0 0 0 0 0 0 0 0 0 0 0 0 0 0 0 0 0 0 127 0" result="hardAlpha"/>
<feOffset dy="4"/>
<feGaussianBlur stdDeviation="2"/>
<feComposite in2="hardAlpha" operator="out"/>
<feColorMatrix type="matrix" values="0 0 0 0 0.0264931 0 0 0 0 0.0949209 0 0 0 0 0.454167 0 0 0 1 0"/>
<feBlend mode="normal" in2="BackgroundImageFix" result="effect1_dropShadow_130_2556"/>
<feBlend mode="normal" in="SourceGraphic" in2="effect1_dropShadow_130_2556" result="shape"/>
</filter>
<filter id="filter25_d_130_2556" x="384.113" y="33.7305" width="131.333" height="115.086" filterUnits="userSpaceOnUse" color-interpolation-filters="sRGB">
<feFlood flood-opacity="0" result="BackgroundImageFix"/>
<feColorMatrix in="SourceAlpha" type="matrix" values="0 0 0 0 0 0 0 0 0 0 0 0 0 0 0 0 0 0 127 0" result="hardAlpha"/>
<feOffset dy="4"/>
<feGaussianBlur stdDeviation="2"/>
<feComposite in2="hardAlpha" operator="out"/>
<feColorMatrix type="matrix" values="0 0 0 0 0.0264931 0 0 0 0 0.0949209 0 0 0 0 0.454167 0 0 0 1 0"/>
<feBlend mode="normal" in2="BackgroundImageFix" result="effect1_dropShadow_130_2556"/>
<feBlend mode="normal" in="SourceGraphic" in2="effect1_dropShadow_130_2556" result="shape"/>
</filter>
<filter id="filter26_d_130_2556" x="428.403" y="69.6523" width="86.9734" height="98.7354" filterUnits="userSpaceOnUse" color-interpolation-filters="sRGB">
<feFlood flood-opacity="0" result="BackgroundImageFix"/>
<feColorMatrix in="SourceAlpha" type="matrix" values="0 0 0 0 0 0 0 0 0 0 0 0 0 0 0 0 0 0 127 0" result="hardAlpha"/>
<feOffset dy="4"/>
<feGaussianBlur stdDeviation="2"/>
<feComposite in2="hardAlpha" operator="out"/>
<feColorMatrix type="matrix" values="0 0 0 0 0.0264931 0 0 0 0 0.0949209 0 0 0 0 0.454167 0 0 0 1 0"/>
<feBlend mode="normal" in2="BackgroundImageFix" result="effect1_dropShadow_130_2556"/>
<feBlend mode="normal" in="SourceGraphic" in2="effect1_dropShadow_130_2556" result="shape"/>
</filter>
<filter id="filter27_d_130_2556" x="505.773" y="31.7773" width="50.4332" height="33.9141" filterUnits="userSpaceOnUse" color-interpolation-filters="sRGB">
<feFlood flood-opacity="0" result="BackgroundImageFix"/>
<feColorMatrix in="SourceAlpha" type="matrix" values="0 0 0 0 0 0 0 0 0 0 0 0 0 0 0 0 0 0 127 0" result="hardAlpha"/>
<feOffset dy="4"/>
<feGaussianBlur stdDeviation="2"/>
<feComposite in2="hardAlpha" operator="out"/>
<feColorMatrix type="matrix" values="0 0 0 0 0.0264931 0 0 0 0 0.0949209 0 0 0 0 0.454167 0 0 0 1 0"/>
<feBlend mode="normal" in2="BackgroundImageFix" result="effect1_dropShadow_130_2556"/>
<feBlend mode="normal" in="SourceGraphic" in2="effect1_dropShadow_130_2556" result="shape"/>
</filter>
<filter id="filter28_d_130_2556" x="495.613" y="79.3457" width="67.7848" height="45.3301" filterUnits="userSpaceOnUse" color-interpolation-filters="sRGB">
<feFlood flood-opacity="0" result="BackgroundImageFix"/>
<feColorMatrix in="SourceAlpha" type="matrix" values="0 0 0 0 0 0 0 0 0 0 0 0 0 0 0 0 0 0 127 0" result="hardAlpha"/>
<feOffset dy="4"/>
<feGaussianBlur stdDeviation="2"/>
<feComposite in2="hardAlpha" operator="out"/>
<feColorMatrix type="matrix" values="0 0 0 0 0.0264931 0 0 0 0 0.0949209 0 0 0 0 0.454167 0 0 0 1 0"/>
<feBlend mode="normal" in2="BackgroundImageFix" result="effect1_dropShadow_130_2556"/>
<feBlend mode="normal" in="SourceGraphic" in2="effect1_dropShadow_130_2556" result="shape"/>
</filter>
<filter id="filter29_d_130_2556" x="432.659" y="131.532" width="74.88" height="79.6924" filterUnits="userSpaceOnUse" color-interpolation-filters="sRGB">
<feFlood flood-opacity="0" result="BackgroundImageFix"/>
<feColorMatrix in="SourceAlpha" type="matrix" values="0 0 0 0 0 0 0 0 0 0 0 0 0 0 0 0 0 0 127 0" result="hardAlpha"/>
<feOffset dy="4"/>
<feGaussianBlur stdDeviation="2"/>
<feComposite in2="hardAlpha" operator="out"/>
<feColorMatrix type="matrix" values="0 0 0 0 0.0264931 0 0 0 0 0.0949209 0 0 0 0 0.454167 0 0 0 1 0"/>
<feBlend mode="normal" in2="BackgroundImageFix" result="effect1_dropShadow_130_2556"/>
<feBlend mode="normal" in="SourceGraphic" in2="effect1_dropShadow_130_2556" result="shape"/>
</filter>
<filter id="filter30_d_130_2556" x="482.109" y="132.461" width="57.4172" height="60.5596" filterUnits="userSpaceOnUse" color-interpolation-filters="sRGB">
<feFlood flood-opacity="0" result="BackgroundImageFix"/>
<feColorMatrix in="SourceAlpha" type="matrix" values="0 0 0 0 0 0 0 0 0 0 0 0 0 0 0 0 0 0 127 0" result="hardAlpha"/>
<feOffset dy="4"/>
<feGaussianBlur stdDeviation="2"/>
<feComposite in2="hardAlpha" operator="out"/>
<feColorMatrix type="matrix" values="0 0 0 0 0.0264931 0 0 0 0 0.0949209 0 0 0 0 0.454167 0 0 0 1 0"/>
<feBlend mode="normal" in2="BackgroundImageFix" result="effect1_dropShadow_130_2556"/>
<feBlend mode="normal" in="SourceGraphic" in2="effect1_dropShadow_130_2556" result="shape"/>
</filter>
<filter id="filter31_d_130_2556" x="412.559" y="195.125" width="85.793" height="53.1748" filterUnits="userSpaceOnUse" color-interpolation-filters="sRGB">
<feFlood flood-opacity="0" result="BackgroundImageFix"/>
<feColorMatrix in="SourceAlpha" type="matrix" values="0 0 0 0 0 0 0 0 0 0 0 0 0 0 0 0 0 0 127 0" result="hardAlpha"/>
<feOffset dy="4"/>
<feGaussianBlur stdDeviation="2"/>
<feComposite in2="hardAlpha" operator="out"/>
<feColorMatrix type="matrix" values="0 0 0 0 0.0264931 0 0 0 0 0.0949209 0 0 0 0 0.454167 0 0 0 1 0"/>
<feBlend mode="normal" in2="BackgroundImageFix" result="effect1_dropShadow_130_2556"/>
<feBlend mode="normal" in="SourceGraphic" in2="effect1_dropShadow_130_2556" result="shape"/>
</filter>
<linearGradient id="paint0_linear_130_2556" x1="238.215" y1="106.15" x2="238.215" y2="279.492" gradientUnits="userSpaceOnUse">
<stop stop-color="#0E4485"/>
<stop offset="1" stop-color="#107DFE" stop-opacity="0.54"/>
</linearGradient>
<linearGradient id="paint1_linear_130_2556" x1="186.949" y1="53.2119" x2="186.949" y2="155.392" gradientUnits="userSpaceOnUse">
<stop stop-color="#0E4485"/>
<stop offset="1" stop-color="#107DFE" stop-opacity="0.54"/>
</linearGradient>
<linearGradient id="paint2_linear_130_2556" x1="175.58" y1="134.293" x2="175.58" y2="171.177" gradientUnits="userSpaceOnUse">
<stop stop-color="#0E4485"/>
<stop offset="1" stop-color="#107DFE" stop-opacity="0.54"/>
</linearGradient>
<linearGradient id="paint3_linear_130_2556" x1="170.718" y1="165.738" x2="170.718" y2="195.289" gradientUnits="userSpaceOnUse">
<stop stop-color="#0E4485"/>
<stop offset="1" stop-color="#107DFE" stop-opacity="0.54"/>
</linearGradient>
<linearGradient id="paint4_linear_130_2556" x1="172.674" y1="188.04" x2="172.674" y2="222.408" gradientUnits="userSpaceOnUse">
<stop stop-color="#0E4485"/>
<stop offset="1" stop-color="#107DFE" stop-opacity="0.54"/>
</linearGradient>
<linearGradient id="paint5_linear_130_2556" x1="166.271" y1="218.76" x2="166.271" y2="260.861" gradientUnits="userSpaceOnUse">
<stop stop-color="#0E4485"/>
<stop offset="1" stop-color="#107DFE" stop-opacity="0.54"/>
</linearGradient>
<linearGradient id="paint6_linear_130_2556" x1="184.37" y1="236.044" x2="184.37" y2="284.982" gradientUnits="userSpaceOnUse">
<stop stop-color="#0E4485"/>
<stop offset="1" stop-color="#107DFE" stop-opacity="0.54"/>
</linearGradient>
<linearGradient id="paint7_linear_130_2556" x1="199.094" y1="252.168" x2="199.094" y2="297.157" gradientUnits="userSpaceOnUse">
<stop stop-color="#0E4485"/>
<stop offset="1" stop-color="#107DFE" stop-opacity="0.54"/>
</linearGradient>
<linearGradient id="paint8_linear_130_2556" x1="100.093" y1="0" x2="100.093" y2="94.774" gradientUnits="userSpaceOnUse">
<stop stop-color="#0E4485"/>
<stop offset="1" stop-color="#107DFE" stop-opacity="0.54"/>
</linearGradient>
<linearGradient id="paint9_linear_130_2556" x1="113.618" y1="33.7305" x2="113.618" y2="140.816" gradientUnits="userSpaceOnUse">
<stop stop-color="#0E4485"/>
<stop offset="1" stop-color="#107DFE" stop-opacity="0.54"/>
</linearGradient>
<linearGradient id="paint10_linear_130_2556" x1="91.5079" y1="69.6523" x2="91.5079" y2="160.388" gradientUnits="userSpaceOnUse">
<stop stop-color="#0E4485"/>
<stop offset="1" stop-color="#107DFE" stop-opacity="0.54"/>
</linearGradient>
<linearGradient id="paint11_linear_130_2556" x1="32.4085" y1="31.7773" x2="32.4085" y2="57.6918" gradientUnits="userSpaceOnUse">
<stop stop-color="#0E4485"/>
<stop offset="1" stop-color="#107DFE" stop-opacity="0.54"/>
</linearGradient>
<linearGradient id="paint12_linear_130_2556" x1="33.8923" y1="79.3457" x2="33.8923" y2="116.676" gradientUnits="userSpaceOnUse">
<stop stop-color="#0E4485"/>
<stop offset="1" stop-color="#107DFE" stop-opacity="0.54"/>
</linearGradient>
<linearGradient id="paint13_linear_130_2556" x1="93.3039" y1="131.532" x2="93.3039" y2="203.225" gradientUnits="userSpaceOnUse">
<stop stop-color="#0E4485"/>
<stop offset="1" stop-color="#107DFE" stop-opacity="0.54"/>
</linearGradient>
<linearGradient id="paint14_linear_130_2556" x1="52.5802" y1="132.461" x2="52.5802" y2="185.021" gradientUnits="userSpaceOnUse">
<stop stop-color="#0E4485"/>
<stop offset="1" stop-color="#107DFE" stop-opacity="0.54"/>
</linearGradient>
<linearGradient id="paint15_linear_130_2556" x1="107.942" y1="195.125" x2="107.942" y2="240.3" gradientUnits="userSpaceOnUse">
<stop stop-color="#0E4485"/>
<stop offset="1" stop-color="#107DFE" stop-opacity="0.54"/>
</linearGradient>
<linearGradient id="paint16_linear_130_2556" x1="325.203" y1="106.15" x2="325.203" y2="279.492" gradientUnits="userSpaceOnUse">
<stop stop-color="#0E4485"/>
<stop offset="1" stop-color="#107DFE" stop-opacity="0.54"/>
</linearGradient>
<linearGradient id="paint17_linear_130_2556" x1="376.439" y1="53.2119" x2="376.439" y2="155.392" gradientUnits="userSpaceOnUse">
<stop stop-color="#0E4485"/>
<stop offset="1" stop-color="#107DFE" stop-opacity="0.54"/>
</linearGradient>
<linearGradient id="paint18_linear_130_2556" x1="387.817" y1="134.293" x2="387.817" y2="171.177" gradientUnits="userSpaceOnUse">
<stop stop-color="#0E4485"/>
<stop offset="1" stop-color="#107DFE" stop-opacity="0.54"/>
</linearGradient>
<linearGradient id="paint19_linear_130_2556" x1="392.704" y1="165.738" x2="392.704" y2="195.289" gradientUnits="userSpaceOnUse">
<stop stop-color="#0E4485"/>
<stop offset="1" stop-color="#107DFE" stop-opacity="0.54"/>
</linearGradient>
<linearGradient id="paint20_linear_130_2556" x1="390.703" y1="188.04" x2="390.703" y2="222.408" gradientUnits="userSpaceOnUse">
<stop stop-color="#0E4485"/>
<stop offset="1" stop-color="#107DFE" stop-opacity="0.54"/>
</linearGradient>
<linearGradient id="paint21_linear_130_2556" x1="397.166" y1="218.76" x2="397.166" y2="260.861" gradientUnits="userSpaceOnUse">
<stop stop-color="#0E4485"/>
<stop offset="1" stop-color="#107DFE" stop-opacity="0.54"/>
</linearGradient>
<linearGradient id="paint22_linear_130_2556" x1="379.028" y1="236.044" x2="379.028" y2="284.982" gradientUnits="userSpaceOnUse">
<stop stop-color="#0E4485"/>
<stop offset="1" stop-color="#107DFE" stop-opacity="0.54"/>
</linearGradient>
<linearGradient id="paint23_linear_130_2556" x1="364.342" y1="252.168" x2="364.342" y2="297.157" gradientUnits="userSpaceOnUse">
<stop stop-color="#0E4485"/>
<stop offset="1" stop-color="#107DFE" stop-opacity="0.54"/>
</linearGradient>
<linearGradient id="paint24_linear_130_2556" x1="463.322" y1="0" x2="463.322" y2="94.774" gradientUnits="userSpaceOnUse">
<stop stop-color="#0E4485"/>
<stop offset="1" stop-color="#107DFE" stop-opacity="0.54"/>
</linearGradient>
<linearGradient id="paint25_linear_130_2556" x1="449.78" y1="33.7305" x2="449.78" y2="140.816" gradientUnits="userSpaceOnUse">
<stop stop-color="#0E4485"/>
<stop offset="1" stop-color="#107DFE" stop-opacity="0.54"/>
</linearGradient>
<linearGradient id="paint26_linear_130_2556" x1="471.89" y1="69.6523" x2="471.89" y2="160.388" gradientUnits="userSpaceOnUse">
<stop stop-color="#0E4485"/>
<stop offset="1" stop-color="#107DFE" stop-opacity="0.54"/>
</linearGradient>
<linearGradient id="paint27_linear_130_2556" x1="530.99" y1="31.7773" x2="530.99" y2="57.6918" gradientUnits="userSpaceOnUse">
<stop stop-color="#0E4485"/>
<stop offset="1" stop-color="#107DFE" stop-opacity="0.54"/>
</linearGradient>
<linearGradient id="paint28_linear_130_2556" x1="529.505" y1="79.3457" x2="529.505" y2="116.676" gradientUnits="userSpaceOnUse">
<stop stop-color="#0E4485"/>
<stop offset="1" stop-color="#107DFE" stop-opacity="0.54"/>
</linearGradient>
<linearGradient id="paint29_linear_130_2556" x1="470.099" y1="131.532" x2="470.099" y2="203.225" gradientUnits="userSpaceOnUse">
<stop stop-color="#0E4485"/>
<stop offset="1" stop-color="#107DFE" stop-opacity="0.54"/>
</linearGradient>
<linearGradient id="paint30_linear_130_2556" x1="510.818" y1="132.461" x2="510.818" y2="185.021" gradientUnits="userSpaceOnUse">
<stop stop-color="#0E4485"/>
<stop offset="1" stop-color="#107DFE" stop-opacity="0.54"/>
</linearGradient>
<linearGradient id="paint31_linear_130_2556" x1="455.455" y1="195.125" x2="455.455" y2="240.3" gradientUnits="userSpaceOnUse">
<stop stop-color="#0E4485"/>
<stop offset="1" stop-color="#107DFE" stop-opacity="0.54"/>
</linearGradient>
<linearGradient id="paint32_linear_130_2556" x1="281.5" y1="163" x2="281.5" y2="263" gradientUnits="userSpaceOnUse">
<stop stop-color="#001E42"/>
<stop offset="1" stop-color="#0075FF" stop-opacity="0.41"/>
</linearGradient>
</defs>
</svg>
