<svg width="1117" height="298" viewBox="0 0 1117 298" fill="none" xmlns="http://www.w3.org/2000/svg">
<path d="M243.389 279.492C243.389 278.852 230.669 256.282 235.599 239.102C238.564 228.508 242.919 218.353 248.549 208.902C248.549 208.702 254.279 202.902 261.279 178.902C268.279 153.832 259.669 140.412 259.669 140.902C259.669 140.902 256.349 132.072 236.169 120.242C215.989 108.412 204.409 106.082 204.409 106.152C204.409 107.032 231.809 120.272 238.809 143.492C245.809 167.742 239.719 180.932 239.719 180.692C239.719 180.692 237.089 191.252 225.719 206.692C214.349 222.132 214.869 234.122 214.869 234.112C214.869 234.102 215.449 244.662 224.389 255.852C233.329 267.042 242.469 278.842 243.389 279.492Z" fill="url(#paint0_linear_132_2594)"/>
<path d="M234.209 155.392C234.209 155.302 232.709 142.212 214.769 126.652C203.802 117.232 191.75 109.155 178.869 102.592C178.869 104.402 134.789 69.4919 131.689 53.2119C136.156 72.9928 144.927 91.5462 157.379 107.552C178.199 133.372 192.599 136.792 192.599 137.132C192.599 137.132 205.009 141.442 214.309 143.552C223.609 145.662 234.209 155.332 234.209 155.392Z" fill="url(#paint1_linear_132_2594)"/>
<path d="M232.069 171.162C233.069 171.302 233.829 170.462 233.409 169.702C230.529 164.422 215.299 157.372 209.319 155.062C191.929 148.652 168.619 145.892 168.619 145.852C168.619 145.922 143.869 144.062 134.299 141.292C126.549 139.102 115.079 136.492 111.099 134.422C110.479 134.092 109.399 134.422 109.679 135.102C110.839 137.882 118.549 146.592 136.179 152.852C160.369 161.292 182.959 159.342 182.959 159.472C201.449 158.752 209.879 161.272 213.559 163.122C217.239 164.972 220.199 165.852 225.089 168.612C227.241 169.878 229.607 170.742 232.069 171.162Z" fill="url(#paint2_linear_132_2594)"/>
<path d="M222.449 185.132C222.449 185.132 233.329 184.922 228.449 176.712C223.569 168.502 200.319 166.712 200.319 166.712C200.319 166.802 182.129 164.142 155.679 167.252C129.239 170.642 108.609 170.472 103.729 168.682C103.729 168.942 119.929 190.942 131.729 193.432C143.509 196.432 151.389 196.062 166.019 190.352C180.649 184.642 190.589 180.972 200.899 181.962C211.209 182.952 219.869 185.482 222.449 185.132Z" fill="url(#paint3_linear_132_2594)"/>
<path d="M221.869 196.872C221.869 196.872 230.689 190.722 219.059 189.142C207.429 187.742 200.659 187.012 182.939 191.142C165.219 195.272 149.099 205.222 149.099 205.292C149.099 205.172 137.659 211.212 113.099 212.642C113.099 212.392 106.159 215.852 132.599 221.242C159.049 225.512 179.679 216.652 179.679 217.052C179.689 216.662 206.509 209.242 221.869 196.872Z" fill="url(#paint4_linear_132_2594)"/>
<path d="M202.569 220.582C202.569 220.582 206.139 217.842 200.879 219.082C195.629 220.082 179.129 230.412 179.129 230.642C179.129 230.252 157.929 245.342 143.869 248.542C129.799 251.222 123.799 249.682 123.799 249.662C123.799 249.642 118.359 249.862 122.109 252.802C125.859 255.922 136.549 264.252 154.559 259.352C172.559 254.952 175.749 250.112 184.939 238.162C194.129 226.552 196.379 224.132 202.569 220.582Z" fill="url(#paint5_linear_132_2594)"/>
<path d="M203.439 236.512C203.549 236.182 203.119 235.912 202.769 236.112C200.699 237.302 195.519 240.752 189.069 249.962C180.629 262.162 179.839 266.142 176.499 270.482C173.759 274.192 169.749 277.842 157.669 283.982C157.149 284.262 157.159 284.982 157.669 284.982C161.739 284.742 174.669 282.982 183.249 277.872C183.249 277.762 193.409 272.052 196.379 259.612C198.309 251.332 202.289 239.752 203.439 236.512Z" fill="url(#paint6_linear_132_2594)"/>
<path d="M210.569 252.432C210.514 252.343 210.434 252.272 210.341 252.225C210.247 252.179 210.142 252.16 210.038 252.171C209.934 252.181 209.834 252.221 209.752 252.284C209.669 252.348 209.605 252.434 209.569 252.532C208.829 255.752 206.569 265.602 204.399 269.852C201.749 275.032 198.219 281.262 191.319 285.702C184.839 290.012 182.319 291.482 175.859 295.762C175.339 296.122 175.289 296.762 175.789 296.842C179.109 297.382 189.139 297.652 200.629 293.962C214.829 289.962 214.749 272.422 214.749 272.112C214.759 272.122 213.949 257.742 210.569 252.432Z" fill="url(#paint7_linear_132_2594)"/>
<path d="M136.869 94.6922C137.359 94.9522 137.779 94.5522 137.539 94.0522C134.879 88.6122 123.469 65.2522 114.459 53.7822C101.869 37.5022 65.2487 4.62222 55.4487 0.0922198C54.9087 -0.26778 54.3287 0.50222 54.6887 1.09222C59.2587 8.39222 74.1987 33.7922 88.2187 50.5222C104.759 70.0922 116.509 84.1222 136.869 94.6922Z" fill="url(#paint8_linear_132_2594)"/>
<path d="M170.639 140.752C170.999 140.942 171.389 140.682 171.259 140.332C169.759 136.232 162.399 120.542 138.969 107.262C112.089 91.7524 101.079 84.5624 93.4388 76.2024C85.7888 67.2824 61.4388 41.8924 61.4388 42.4324C61.4388 42.3424 52.7488 33.5824 50.3188 33.7324C47.8888 33.8824 46.9588 34.7924 49.3188 38.9524C51.6288 42.8824 64.6088 64.8224 72.3688 76.1124C80.1288 87.2224 93.9189 106.772 102.959 113.682C111.999 120.592 115.699 123.162 132.729 127.562C149.319 131.762 158.429 134.332 170.639 140.752Z" fill="url(#paint9_linear_132_2594)"/>
<path d="M126.769 159.072C127.149 158.892 126.999 158.492 126.689 158.192C124.839 156.272 106.849 151.472 91.9488 130.042C76.5388 108.152 67.9488 79.2123 48.7188 69.6523C48.7188 69.7023 45.4688 69.0723 52.9988 78.0423C60.5288 87.2323 60.1888 86.7823 68.7588 109.942C77.3288 133.102 87.8688 145.732 87.8688 145.702C87.8688 145.672 97.5688 157.462 104.549 159.122C105.589 159.332 120.749 161.892 126.769 159.072Z" fill="url(#paint10_linear_132_2594)"/>
<path d="M49.1089 57.6918C49.5089 57.6918 49.7589 57.1318 49.5489 56.6918C47.1989 54.0918 35.5989 28.7818 7.79892 32.0718C7.45892 32.1418 7.06891 32.8218 7.22891 33.0718C10.0389 37.7418 19.2089 54.3318 49.1089 57.6918Z" fill="url(#paint11_linear_132_2594)"/>
<path d="M59.2589 116.613C59.3573 116.597 59.4506 116.559 59.531 116.5C59.6113 116.441 59.6763 116.364 59.7205 116.275C59.7646 116.185 59.7866 116.087 59.7846 115.987C59.7825 115.888 59.7566 115.79 59.7089 115.703C58.2489 112.923 51.4688 97.7825 28.4088 86.4625C10.0488 78.6325 2.48886 80.5625 0.678858 79.3625C0.408858 79.2425 -0.0711247 79.7925 0.00887528 80.1225C0.618875 83.2925 4.00883 86.8725 21.5288 99.1225C41.6488 114.603 55.8689 117.143 59.2589 116.613Z" fill="url(#paint12_linear_132_2594)"/>
<path d="M122.739 199.693C122.739 199.413 107.839 201.813 89.7389 175.453C89.7389 175.453 85.8789 170.453 81.3489 158.283C76.8189 146.113 64.3489 133.333 55.8689 131.533C55.8689 131.463 67.2289 144.533 73.2989 165.533C79.3689 186.533 91.8489 197.533 91.8489 197.533C91.8489 197.533 98.9089 203.533 106.529 203.213C114.149 202.893 122.739 199.673 122.739 199.693Z" fill="url(#paint13_linear_132_2594)"/>
<path d="M73.2888 185.012C73.2888 185.072 67.8888 164.762 51.9888 156.152C36.0888 147.542 23.9888 132.292 23.9888 132.462C23.9888 132.632 21.8887 140.922 35.4687 161.132C49.0087 181.872 73.2888 185.212 73.2888 185.012Z" fill="url(#paint14_linear_132_2594)"/>
<path d="M65.7889 195.162C72.0789 194.552 82.1189 201.522 90.2889 210.312C98.4589 219.312 112.289 227.392 112.289 227.312C132.289 234.932 142.839 232.312 142.839 232.492C142.839 232.392 140.839 243.302 124.959 239.492C115.295 237.013 106.34 232.323 98.7989 225.792C98.7989 225.952 86.6589 213.002 84.8889 210.942C83.1289 209.092 76.2789 200.732 69.4389 198.412C62.5989 196.092 65.7889 195.152 65.7889 195.162Z" fill="url(#paint15_linear_132_2594)"/>
<path d="M312.009 279.492C312.009 278.852 324.729 256.282 319.799 239.102C316.84 228.509 312.492 218.354 306.869 208.902C306.869 208.702 301.139 202.902 294.139 178.902C287.139 153.832 295.749 140.412 295.749 140.902C295.749 140.902 299.069 132.072 319.249 120.242C339.429 108.412 351.009 106.082 351.009 106.152C351.009 107.032 323.609 120.272 316.609 143.492C309.609 167.742 315.699 180.932 315.699 180.692C315.699 180.692 318.329 191.252 329.699 206.692C341.069 222.132 340.589 234.132 340.589 234.122C340.589 234.112 340.009 244.672 331.069 255.862C322.129 267.052 312.929 278.842 312.009 279.492Z" fill="url(#paint16_linear_132_2594)"/>
<path d="M321.189 155.392C321.189 155.302 322.689 142.212 340.629 126.652C351.589 117.233 363.634 109.156 376.509 102.592C376.509 104.402 420.589 69.4919 423.689 53.2119C419.222 72.9928 410.451 91.5462 397.999 107.552C377.179 133.372 362.779 136.792 362.779 137.132C362.779 137.132 350.369 141.442 341.069 143.552C331.769 145.662 321.189 155.332 321.189 155.392Z" fill="url(#paint17_linear_132_2594)"/>
<path d="M323.329 171.162C322.329 171.302 321.569 170.462 321.989 169.702C324.869 164.422 340.099 157.372 346.079 155.062C363.469 148.652 386.779 145.892 386.779 145.852C386.779 145.922 411.539 144.062 421.099 141.292C428.859 139.102 440.319 136.492 444.299 134.422C444.919 134.092 445.999 134.422 445.719 135.102C444.559 137.882 436.849 146.592 419.219 152.852C395.029 161.292 372.439 159.342 372.439 159.472C353.949 158.752 345.519 161.272 341.839 163.122C338.159 164.972 335.199 165.852 330.309 168.612C328.156 169.878 325.791 170.742 323.329 171.162V171.162Z" fill="url(#paint18_linear_132_2594)"/>
<path d="M332.949 185.132C332.949 185.132 322.069 184.922 326.949 176.712C331.829 168.502 355.079 166.712 355.079 166.712C355.079 166.802 373.269 164.142 399.719 167.252C426.159 170.642 446.799 170.472 451.719 168.682C451.719 168.942 435.519 190.942 423.719 193.432C411.939 196.432 404.059 196.062 389.429 190.352C374.799 184.642 364.859 180.972 354.549 181.962C344.239 182.952 335.569 185.482 332.949 185.132Z" fill="url(#paint19_linear_132_2594)"/>
<path d="M333.509 196.872C333.509 196.872 324.689 190.722 336.319 189.142C347.949 187.742 354.719 187.012 372.439 191.142C390.159 195.272 406.279 205.222 406.279 205.292C406.279 205.172 417.719 211.212 442.279 212.642C442.279 212.392 449.219 215.852 422.779 221.242C396.329 225.512 375.699 216.652 375.699 217.052C375.709 216.662 348.869 209.242 333.509 196.872Z" fill="url(#paint20_linear_132_2594)"/>
<path d="M352.869 220.582C352.869 220.582 349.299 217.842 354.559 219.082C359.809 220.082 376.309 230.412 376.309 230.642C376.309 230.252 397.509 245.342 411.569 248.542C425.639 251.222 431.639 249.682 431.639 249.662C431.639 249.642 437.079 249.862 433.329 252.802C429.579 255.922 418.889 264.252 400.879 259.352C382.879 254.952 379.689 250.112 370.499 238.162C361.269 226.552 359.019 224.132 352.869 220.582Z" fill="url(#paint21_linear_132_2594)"/>
<path d="M351.959 236.512C351.849 236.182 352.279 235.912 352.629 236.112C354.709 237.302 359.879 240.752 366.329 249.962C374.769 262.162 375.559 266.142 378.899 270.482C381.639 274.192 385.649 277.842 397.729 283.982C398.249 284.262 398.239 284.982 397.729 284.982C393.659 284.742 380.729 282.982 372.149 277.872C372.149 277.762 361.989 272.052 359.019 259.612C357.089 251.332 353.109 239.752 351.959 236.512Z" fill="url(#paint22_linear_132_2594)"/>
<path d="M344.869 252.432C344.924 252.343 345.003 252.272 345.097 252.225C345.191 252.179 345.296 252.16 345.4 252.171C345.504 252.181 345.603 252.221 345.686 252.284C345.769 252.348 345.832 252.434 345.869 252.532C346.619 255.752 348.869 265.602 351.039 269.852C353.689 275.032 357.219 281.262 364.119 285.702C370.599 290.012 373.119 291.482 379.579 295.762C380.099 296.122 380.149 296.762 379.649 296.842C376.329 297.382 366.299 297.652 354.809 293.962C340.609 289.962 340.689 272.422 340.689 272.112C340.639 272.122 341.449 257.742 344.869 252.432Z" fill="url(#paint23_linear_132_2594)"/>
<path d="M418.549 94.6922C418.059 94.9522 417.649 94.5522 417.879 94.0522C420.539 88.6122 431.959 65.2522 440.959 53.7822C453.509 37.5022 490.149 4.62222 499.959 0.0922198C500.499 -0.26778 501.079 0.50222 500.719 1.09222C496.149 8.39222 481.209 33.7922 467.189 50.5222C450.639 70.0922 438.869 84.1222 418.549 94.6922Z" fill="url(#paint24_linear_132_2594)"/>
<path d="M384.759 140.752C384.399 140.942 384.009 140.682 384.139 140.332C385.639 136.232 392.999 120.542 416.429 107.262C443.309 91.7524 454.319 84.5624 461.959 76.2024C469.609 67.2824 493.959 41.8924 493.959 42.4324C493.959 42.3424 502.649 33.5824 505.079 33.7324C507.509 33.8824 508.439 34.7924 506.079 38.9524C503.759 42.8824 490.779 64.8224 483.019 76.1124C475.259 87.2224 461.469 106.772 452.429 113.682C443.389 120.592 439.689 123.162 422.659 127.562C406.079 131.762 396.969 134.332 384.759 140.752Z" fill="url(#paint25_linear_132_2594)"/>
<path d="M428.629 159.072C428.249 158.892 428.399 158.492 428.709 158.192C430.559 156.272 448.549 151.472 463.449 130.042C478.859 108.152 487.449 79.2123 506.679 69.6523C506.679 69.7023 509.929 69.0723 502.399 78.0423C494.869 87.2323 495.209 86.7823 486.639 109.942C478.069 133.102 467.529 145.732 467.529 145.702C467.529 145.672 457.869 157.462 450.869 159.122C449.809 159.332 434.649 161.892 428.629 159.072Z" fill="url(#paint26_linear_132_2594)"/>
<path d="M506.289 57.6918C505.889 57.6918 505.639 57.1318 505.849 56.6918C508.199 54.0918 519.849 28.7818 547.599 32.0718C547.939 32.1418 548.329 32.8218 548.169 33.0718C545.359 37.7418 536.189 54.3318 506.289 57.6918Z" fill="url(#paint27_linear_132_2594)"/>
<path d="M496.139 116.613C496.04 116.597 495.947 116.559 495.867 116.5C495.786 116.441 495.721 116.364 495.677 116.275C495.633 116.185 495.611 116.087 495.613 115.987C495.615 115.888 495.641 115.79 495.689 115.703C497.149 112.923 503.929 97.7825 526.989 86.4625C545.349 78.6325 552.909 80.5625 554.729 79.3625C554.989 79.2425 555.469 79.7925 555.389 80.1225C554.779 83.2925 551.389 86.8725 533.869 99.1225C513.749 114.603 499.539 117.143 496.139 116.613Z" fill="url(#paint28_linear_132_2594)"/>
<path d="M432.659 199.693C432.659 199.413 447.559 201.813 465.659 175.453C465.659 175.453 469.519 170.453 474.049 158.283C478.579 146.113 491.049 133.333 499.539 131.533C499.539 131.463 488.179 144.533 482.109 165.533C476.039 186.533 463.559 197.533 463.559 197.533C463.559 197.533 456.499 203.533 448.889 203.213C441.279 202.893 432.659 199.673 432.659 199.693Z" fill="url(#paint29_linear_132_2594)"/>
<path d="M482.109 185.012C482.109 185.072 487.509 164.762 503.409 156.152C519.309 147.542 531.409 132.292 531.409 132.462C531.409 132.632 533.509 140.922 519.929 161.132C506.389 181.872 482.109 185.212 482.109 185.012Z" fill="url(#paint30_linear_132_2594)"/>
<path d="M489.609 195.162C483.319 194.552 473.279 201.522 465.109 210.312C456.939 219.312 443.109 227.392 443.109 227.312C423.109 234.932 412.559 232.312 412.559 232.492C412.559 232.392 414.559 243.302 430.439 239.492C440.102 237.013 449.058 232.323 456.599 225.792C456.599 225.952 468.739 213.002 470.509 210.942C472.269 209.092 479.119 200.732 485.959 198.412C492.799 196.092 489.609 195.152 489.609 195.162Z" fill="url(#paint31_linear_132_2594)"/>
<path d="M246.734 261.902C246.018 261.837 245.66 261.316 245.66 260.34V252.186C245.66 251.665 245.758 251.307 245.953 251.111C246.181 250.916 246.572 250.802 247.125 250.77L251.617 250.965L270.953 188.27C271.148 187.651 271.539 187.309 272.125 187.244L283.209 186.854C283.795 186.886 284.202 187.26 284.43 187.977L305.523 250.623L309.967 250.477C310.878 250.542 311.334 251.062 311.334 252.039V259.754C311.334 260.307 311.22 260.665 310.992 260.828C310.764 260.991 310.374 261.072 309.82 261.072H287.213C286.627 261.072 286.285 260.942 286.188 260.682C286.09 260.421 286.041 260.063 286.041 259.607L287.018 252.479C287.083 251.925 287.213 251.567 287.408 251.404C287.604 251.209 287.962 251.111 288.482 251.111L294.049 250.965L289.85 237.977L265.68 237.488L261.725 251.648L267.633 251.062C268.023 251.062 268.284 251.144 268.414 251.307C268.577 251.469 268.691 251.762 268.756 252.186L269.488 259.607C269.423 260.161 269.277 260.535 269.049 260.73C268.854 260.926 268.512 261.04 268.023 261.072L246.734 261.902ZM267.975 229.188H286.969L276.715 197.791L267.975 229.188Z" fill="url(#paint32_linear_132_2594)"/>
<path d="M586.158 161.074C585.41 160.618 585.003 160.049 584.938 159.365L584.547 154.678C584.612 153.962 584.889 153.457 585.377 153.164L615.309 135C615.569 134.805 615.813 134.707 616.041 134.707C616.529 134.707 616.871 134.837 617.066 135.098L621.363 141.787C621.559 142.08 621.656 142.324 621.656 142.52C621.656 142.715 621.559 142.878 621.363 143.008L595.143 156.826L621.412 170.156C621.607 170.286 621.705 170.465 621.705 170.693C621.705 170.921 621.607 171.198 621.412 171.523L617.311 178.457C617.18 178.685 617.001 178.799 616.773 178.799C616.578 178.799 616.35 178.717 616.09 178.555L586.158 161.074ZM635.035 184.902C634.319 184.837 633.961 184.316 633.961 183.34V175.186C633.961 174.665 634.059 174.307 634.254 174.111C634.482 173.916 634.872 173.802 635.426 173.77L639.918 173.965L659.254 111.27C659.449 110.651 659.84 110.309 660.426 110.244L671.51 109.854C672.096 109.886 672.503 110.26 672.73 110.977L693.824 173.623L698.268 173.477C699.179 173.542 699.635 174.062 699.635 175.039V182.754C699.635 183.307 699.521 183.665 699.293 183.828C699.065 183.991 698.674 184.072 698.121 184.072H675.514C674.928 184.072 674.586 183.942 674.488 183.682C674.391 183.421 674.342 183.063 674.342 182.607L675.318 175.479C675.383 174.925 675.514 174.567 675.709 174.404C675.904 174.209 676.262 174.111 676.783 174.111L682.35 173.965L678.15 160.977L653.98 160.488L650.025 174.648L655.934 174.062C656.324 174.062 656.585 174.144 656.715 174.307C656.878 174.469 656.992 174.762 657.057 175.186L657.789 182.607C657.724 183.161 657.577 183.535 657.35 183.73C657.154 183.926 656.812 184.04 656.324 184.072L635.035 184.902ZM656.275 152.188H675.27L665.016 120.791L656.275 152.188ZM737.672 140.908C733.538 140.908 728.818 142.601 723.512 145.986L724.098 175.234L729.42 174.648C729.973 174.648 730.25 174.925 730.25 175.479L729.322 183.047C729.192 183.763 728.834 184.121 728.248 184.121H707.887C707.366 184.121 707.105 183.73 707.105 182.949L708.082 175.479C708.212 174.795 708.57 174.453 709.156 174.453H713.307V142.178L705.836 141.982C705.185 141.982 704.859 141.592 704.859 140.811L705.738 132.363C705.803 131.81 706.194 131.468 706.91 131.338L720.436 129.336C721.021 129.336 721.314 129.71 721.314 130.459V138.906C728.02 132.201 734.612 128.848 741.09 128.848C748.512 128.848 752.939 132.38 754.371 139.443C754.827 141.787 755.055 143.984 755.055 146.035C755.055 148.053 755.038 149.762 755.006 151.162C754.973 152.529 754.924 154.043 754.859 155.703L754.762 160.781C754.697 162.572 754.632 164.362 754.566 166.152L754.371 171.328C754.306 172.988 754.241 174.518 754.176 175.918L759.791 175.674C760.475 175.674 760.816 176.064 760.816 176.846V184.023C760.816 184.414 760.719 184.674 760.523 184.805C760.361 184.902 760.084 184.967 759.693 185L745.533 186.074C744.817 186.074 744.459 185.716 744.459 185C744.557 181.452 744.605 178.115 744.605 174.99L744.703 166.836C744.703 164.525 744.703 162.36 744.703 160.342V151.406C744.703 147.37 744.361 144.798 743.678 143.691C742.994 142.552 742.197 141.803 741.285 141.445C740.374 141.087 739.169 140.908 737.672 140.908ZM819.41 129.287C820.289 129.287 820.761 129.873 820.826 131.045L820.191 138.711C820.126 139.395 819.752 139.736 819.068 139.736L810.279 138.027C813.762 141.738 815.504 145.091 815.504 148.086C815.504 151.081 815.097 153.799 814.283 156.24C813.502 158.649 812.216 160.684 810.426 162.344C806.812 165.729 801.132 167.422 793.385 167.422C790.325 167.422 787.558 167.096 785.084 166.445C784.303 168.236 783.912 169.701 783.912 170.84C783.912 171.979 783.993 172.793 784.156 173.281C784.319 173.77 784.645 174.16 785.133 174.453C786.012 175.007 787.346 175.283 789.137 175.283C790.96 175.283 792.669 175.234 794.264 175.137C798.398 174.941 801.702 174.844 804.176 174.844C806.682 174.844 808.928 175.251 810.914 176.064C812.932 176.878 814.56 177.969 815.797 179.336C818.206 182.005 819.41 185.537 819.41 189.932C819.41 195.303 817.278 199.681 813.014 203.066C808.326 206.81 801.751 208.682 793.287 208.682C786.223 208.682 781.048 207.786 777.76 205.996C774.081 203.978 772.242 200.869 772.242 196.67C772.242 192.471 774.114 187.93 777.857 183.047C775.253 181.582 773.951 179.222 773.951 175.967C773.951 172.679 775.839 168.757 779.615 164.199C774.342 161.139 771.705 155.882 771.705 148.428C771.705 141.885 773.87 136.888 778.199 133.438C782.073 130.345 787.395 128.799 794.166 128.799C797.682 128.799 800.904 128.848 803.834 128.945C810.67 129.173 815.862 129.287 819.41 129.287ZM805.055 151.943C805.413 150.641 805.592 149.242 805.592 147.744C805.592 146.247 805.364 144.863 804.908 143.594C804.485 142.292 803.818 141.185 802.906 140.273C800.953 138.32 798.137 137.344 794.459 137.344C788.6 137.344 784.775 139.329 782.984 143.301C782.366 144.733 782.057 146.475 782.057 148.525C782.057 155.199 786.191 158.535 794.459 158.535C800.253 158.535 803.785 156.338 805.055 151.943ZM800.709 184.512L787.33 184.902C786.028 184.902 784.872 184.854 783.863 184.756C782.789 187.393 782.252 189.98 782.252 192.52C782.252 195.059 783.245 196.816 785.23 197.793C787.216 198.802 789.902 199.307 793.287 199.307C796.673 199.307 799.293 199.095 801.148 198.672C803.004 198.281 804.566 197.728 805.836 197.012C808.375 195.514 809.645 193.561 809.645 191.152C809.645 189.102 809.221 187.669 808.375 186.855C806.78 185.293 804.225 184.512 800.709 184.512ZM865.65 184.707C861.484 185.749 856.194 186.27 849.781 186.27C843.238 186.27 838.486 184.251 835.523 180.215C832.431 176.016 830.885 169.359 830.885 160.244C830.885 150.674 832.203 143.529 834.84 138.809C837.835 133.6 842.62 130.426 849.195 129.287C851.474 128.896 854.013 128.701 856.812 128.701C862.835 128.701 867.213 130.182 869.947 133.145C872.682 136.107 874.049 140.632 874.049 146.719C874.049 150.69 873.349 153.75 871.949 155.898C871.493 156.582 870.875 157.363 870.094 158.242C869.312 159.089 867.864 159.854 865.748 160.537C863.665 161.188 861.272 161.693 858.57 162.051C854.371 162.572 848.593 162.832 841.236 162.832C841.66 168.333 843.01 172.077 845.289 174.062C847.014 175.625 850.009 176.406 854.273 176.406C858.277 176.406 862.265 176.064 866.236 175.381L866.383 172.842C866.415 172.451 866.497 172.191 866.627 172.061C866.79 171.93 867.066 171.816 867.457 171.719L874.488 170.156C875.204 170.156 875.611 170.465 875.709 171.084C875.807 171.637 875.904 172.728 876.002 174.355C876.1 175.951 876.197 177.334 876.295 178.506C876.393 179.678 876.474 180.801 876.539 181.875L876.734 184.609C876.767 185.423 876.783 186.107 876.783 186.66C876.783 187.637 876.067 188.206 874.635 188.369L866.529 189.346C865.813 189.346 865.455 188.988 865.455 188.271L865.65 184.707ZM861.109 152.725C861.956 151.976 862.46 151.113 862.623 150.137C862.818 149.128 862.916 147.956 862.916 146.621C862.916 145.254 862.786 144.049 862.525 143.008C862.298 141.966 861.891 141.071 861.305 140.322C860.035 138.76 857.968 137.979 855.104 137.979C849.57 137.979 845.875 139.378 844.02 142.178C842.262 144.782 841.285 149.274 841.09 155.654C852.451 155.492 859.124 154.515 861.109 152.725ZM888.844 118.789C888.258 118.789 887.965 118.431 887.965 117.715L888.258 108.145C888.258 107.754 888.355 107.51 888.551 107.412C888.746 107.282 889.039 107.184 889.43 107.119L905.299 107.51C905.657 107.51 905.885 107.607 905.982 107.803C906.08 107.965 906.145 108.242 906.178 108.633L905.836 116.396L906.568 174.795L913.209 174.258C913.665 174.258 913.925 174.567 913.99 175.186L914.576 184.023C914.511 184.414 914.397 184.674 914.234 184.805C914.104 184.902 913.827 184.967 913.404 185L886.891 184.707C886.435 184.707 886.207 184.316 886.207 183.535V175.186C886.207 174.567 886.467 174.258 886.988 174.258L896.217 174.844V118.203L888.844 118.789ZM964.723 131.289C965.243 131.289 965.504 131.68 965.504 132.461L965.992 173.672L972.535 173.428C973.186 173.46 973.512 173.851 973.512 174.6L972.633 183.535C972.6 184.219 972.21 184.561 971.461 184.561H959.4C958.391 184.561 957.724 183.942 957.398 182.705L956.227 177.773C950.855 182.396 944.736 184.707 937.867 184.707C928.264 184.707 923.463 178.571 923.463 166.299C923.463 162.035 923.707 157.282 924.195 152.041L925.172 141.006L918.922 141.201C918.238 141.201 917.896 140.811 917.896 140.029L918.873 131.387C918.938 130.996 919.036 130.752 919.166 130.654C919.329 130.524 919.605 130.443 919.996 130.41L935.523 130.801C935.979 130.801 936.207 131.159 936.207 131.875C936.044 133.438 935.882 135.195 935.719 137.148C934.352 151.829 933.668 160.895 933.668 164.346C933.668 167.796 934.319 170.303 935.621 171.865C936.923 173.395 939.267 174.16 942.652 174.16C946.038 174.16 950.351 172.5 955.592 169.18V141.104L949.488 140.762C949.033 140.697 948.756 140.42 948.658 139.932L949.586 131.875C949.716 131.159 950.074 130.801 950.66 130.801L964.723 131.289ZM1017.12 143.35C1008.33 140.355 1002.12 138.857 998.512 138.857C994.605 138.857 991.969 139.818 990.602 141.738C990.048 142.487 989.771 143.415 989.771 144.521C989.771 145.628 989.902 146.589 990.162 147.402C990.423 148.216 990.895 148.932 991.578 149.551C992.945 150.853 995.582 151.813 999.488 152.432C1003.39 153.05 1006.8 153.734 1009.69 154.482C1012.62 155.199 1014.97 156.143 1016.72 157.314C1018.51 158.454 1019.78 159.902 1020.53 161.66C1021.31 163.418 1021.71 165.68 1021.71 168.447C1021.71 171.182 1021.3 173.607 1020.48 175.723C1019.67 177.839 1018.51 179.629 1017.02 181.094C1013.99 183.991 1009.79 185.439 1004.42 185.439C1000.74 185.439 996.51 184.984 991.725 184.072L992.555 188.125C992.555 188.646 992.18 188.939 991.432 189.004L983.033 189.736C981.796 189.736 981.113 189.102 980.982 187.832L979.615 173.33C979.615 172.744 980.006 172.386 980.787 172.256L988.404 170.889C988.958 170.889 989.299 171.263 989.43 172.012L990.016 175.234C994.736 175.983 998.626 176.357 1001.69 176.357C1004.75 176.357 1007.02 175.723 1008.52 174.453C1010.02 173.151 1010.77 171.442 1010.77 169.326C1010.77 167.34 1009.97 165.924 1008.38 165.078C1006.98 164.297 1004.22 163.597 1000.12 162.979C996.054 162.327 992.701 161.628 990.064 160.879C987.428 160.098 985.263 159.072 983.57 157.803C980.348 155.394 978.736 151.309 978.736 145.547C978.736 140.534 980.25 136.53 983.277 133.535C986.5 130.378 991.008 128.799 996.803 128.799C1000.22 128.799 1004.16 129.938 1008.62 132.217L1007.69 128.359C1007.69 127.578 1008.03 127.155 1008.72 127.09L1018.38 126.309C1018.91 126.309 1019.17 126.683 1019.17 127.432L1018.09 142.324C1018.06 143.008 1017.73 143.35 1017.12 143.35ZM1056.62 101.797C1057.11 101.96 1057.35 102.236 1057.35 102.627C1057.35 102.725 1057.32 102.904 1057.25 103.164L1032.79 206.533C1032.69 206.989 1032.4 207.217 1031.91 207.217C1031.71 207.217 1031.55 207.201 1031.42 207.168L1025.27 205.654C1024.75 205.524 1024.49 205.182 1024.49 204.629C1024.49 204.466 1024.5 204.352 1024.54 204.287L1048.76 101.016C1048.85 100.462 1049.18 100.186 1049.73 100.186C1049.86 100.186 1049.98 100.202 1050.07 100.234L1056.62 101.797ZM1103.93 152.48C1104.68 152.936 1105.09 153.506 1105.15 154.189L1105.54 158.877C1105.48 159.593 1105.2 160.098 1104.71 160.391L1074.78 178.555C1074.52 178.75 1074.28 178.848 1074.05 178.848C1073.56 178.848 1073.22 178.717 1073.02 178.457L1068.73 171.768C1068.53 171.475 1068.43 171.23 1068.43 171.035C1068.43 170.84 1068.53 170.677 1068.73 170.547L1094.95 156.729L1068.68 143.398C1068.48 143.268 1068.38 143.105 1068.38 142.91C1068.38 142.682 1068.48 142.389 1068.68 142.031L1072.78 135.098C1072.91 134.87 1073.07 134.756 1073.27 134.756C1073.5 134.756 1073.74 134.837 1074 135L1103.93 152.48Z" fill="url(#paint33_linear_132_2594)"/>
<defs>
<linearGradient id="paint0_linear_132_2594" x1="234.215" y1="106.15" x2="234.215" y2="279.492" gradientUnits="userSpaceOnUse">
<stop stop-color="white"/>
<stop offset="1" stop-color="white" stop-opacity="0.58"/>
</linearGradient>
<linearGradient id="paint1_linear_132_2594" x1="182.949" y1="53.2119" x2="182.949" y2="155.392" gradientUnits="userSpaceOnUse">
<stop stop-color="white"/>
<stop offset="1" stop-color="white" stop-opacity="0.58"/>
</linearGradient>
<linearGradient id="paint2_linear_132_2594" x1="171.58" y1="134.293" x2="171.58" y2="171.177" gradientUnits="userSpaceOnUse">
<stop stop-color="white"/>
<stop offset="1" stop-color="white" stop-opacity="0.58"/>
</linearGradient>
<linearGradient id="paint3_linear_132_2594" x1="166.718" y1="165.738" x2="166.718" y2="195.289" gradientUnits="userSpaceOnUse">
<stop stop-color="white"/>
<stop offset="1" stop-color="white" stop-opacity="0.58"/>
</linearGradient>
<linearGradient id="paint4_linear_132_2594" x1="168.674" y1="188.04" x2="168.674" y2="222.408" gradientUnits="userSpaceOnUse">
<stop stop-color="white"/>
<stop offset="1" stop-color="white" stop-opacity="0.58"/>
</linearGradient>
<linearGradient id="paint5_linear_132_2594" x1="162.271" y1="218.76" x2="162.271" y2="260.861" gradientUnits="userSpaceOnUse">
<stop stop-color="white"/>
<stop offset="1" stop-color="white" stop-opacity="0.58"/>
</linearGradient>
<linearGradient id="paint6_linear_132_2594" x1="180.37" y1="236.044" x2="180.37" y2="284.982" gradientUnits="userSpaceOnUse">
<stop stop-color="white"/>
<stop offset="1" stop-color="white" stop-opacity="0.58"/>
</linearGradient>
<linearGradient id="paint7_linear_132_2594" x1="195.094" y1="252.168" x2="195.094" y2="297.157" gradientUnits="userSpaceOnUse">
<stop stop-color="white"/>
<stop offset="1" stop-color="white" stop-opacity="0.58"/>
</linearGradient>
<linearGradient id="paint8_linear_132_2594" x1="96.0927" y1="0" x2="96.0927" y2="94.774" gradientUnits="userSpaceOnUse">
<stop stop-color="white"/>
<stop offset="1" stop-color="white" stop-opacity="0.58"/>
</linearGradient>
<linearGradient id="paint9_linear_132_2594" x1="109.618" y1="33.7305" x2="109.618" y2="140.816" gradientUnits="userSpaceOnUse">
<stop stop-color="white"/>
<stop offset="1" stop-color="white" stop-opacity="0.58"/>
</linearGradient>
<linearGradient id="paint10_linear_132_2594" x1="87.5079" y1="69.6523" x2="87.5079" y2="160.388" gradientUnits="userSpaceOnUse">
<stop stop-color="white"/>
<stop offset="1" stop-color="white" stop-opacity="0.58"/>
</linearGradient>
<linearGradient id="paint11_linear_132_2594" x1="28.4085" y1="31.7773" x2="28.4085" y2="57.6918" gradientUnits="userSpaceOnUse">
<stop stop-color="white"/>
<stop offset="1" stop-color="white" stop-opacity="0.58"/>
</linearGradient>
<linearGradient id="paint12_linear_132_2594" x1="29.8923" y1="79.3457" x2="29.8923" y2="116.676" gradientUnits="userSpaceOnUse">
<stop stop-color="white"/>
<stop offset="1" stop-color="white" stop-opacity="0.58"/>
</linearGradient>
<linearGradient id="paint13_linear_132_2594" x1="89.3039" y1="131.532" x2="89.3039" y2="203.225" gradientUnits="userSpaceOnUse">
<stop stop-color="white"/>
<stop offset="1" stop-color="white" stop-opacity="0.58"/>
</linearGradient>
<linearGradient id="paint14_linear_132_2594" x1="48.5802" y1="132.461" x2="48.5802" y2="185.021" gradientUnits="userSpaceOnUse">
<stop stop-color="white"/>
<stop offset="1" stop-color="white" stop-opacity="0.58"/>
</linearGradient>
<linearGradient id="paint15_linear_132_2594" x1="103.942" y1="195.125" x2="103.942" y2="240.3" gradientUnits="userSpaceOnUse">
<stop stop-color="white"/>
<stop offset="1" stop-color="white" stop-opacity="0.58"/>
</linearGradient>
<linearGradient id="paint16_linear_132_2594" x1="321.203" y1="106.15" x2="321.203" y2="279.492" gradientUnits="userSpaceOnUse">
<stop stop-color="white"/>
<stop offset="1" stop-color="white" stop-opacity="0.58"/>
</linearGradient>
<linearGradient id="paint17_linear_132_2594" x1="372.439" y1="53.2119" x2="372.439" y2="155.392" gradientUnits="userSpaceOnUse">
<stop stop-color="white"/>
<stop offset="1" stop-color="white" stop-opacity="0.58"/>
</linearGradient>
<linearGradient id="paint18_linear_132_2594" x1="383.817" y1="134.293" x2="383.817" y2="171.177" gradientUnits="userSpaceOnUse">
<stop stop-color="white"/>
<stop offset="1" stop-color="white" stop-opacity="0.58"/>
</linearGradient>
<linearGradient id="paint19_linear_132_2594" x1="388.704" y1="165.738" x2="388.704" y2="195.289" gradientUnits="userSpaceOnUse">
<stop stop-color="white"/>
<stop offset="1" stop-color="white" stop-opacity="0.58"/>
</linearGradient>
<linearGradient id="paint20_linear_132_2594" x1="386.703" y1="188.04" x2="386.703" y2="222.408" gradientUnits="userSpaceOnUse">
<stop stop-color="white"/>
<stop offset="1" stop-color="white" stop-opacity="0.58"/>
</linearGradient>
<linearGradient id="paint21_linear_132_2594" x1="393.166" y1="218.76" x2="393.166" y2="260.861" gradientUnits="userSpaceOnUse">
<stop stop-color="white"/>
<stop offset="1" stop-color="white" stop-opacity="0.58"/>
</linearGradient>
<linearGradient id="paint22_linear_132_2594" x1="375.028" y1="236.044" x2="375.028" y2="284.982" gradientUnits="userSpaceOnUse">
<stop stop-color="white"/>
<stop offset="1" stop-color="white" stop-opacity="0.58"/>
</linearGradient>
<linearGradient id="paint23_linear_132_2594" x1="360.342" y1="252.168" x2="360.342" y2="297.157" gradientUnits="userSpaceOnUse">
<stop stop-color="white"/>
<stop offset="1" stop-color="white" stop-opacity="0.58"/>
</linearGradient>
<linearGradient id="paint24_linear_132_2594" x1="459.322" y1="0" x2="459.322" y2="94.774" gradientUnits="userSpaceOnUse">
<stop stop-color="white"/>
<stop offset="1" stop-color="white" stop-opacity="0.58"/>
</linearGradient>
<linearGradient id="paint25_linear_132_2594" x1="445.78" y1="33.7305" x2="445.78" y2="140.816" gradientUnits="userSpaceOnUse">
<stop stop-color="white"/>
<stop offset="1" stop-color="white" stop-opacity="0.58"/>
</linearGradient>
<linearGradient id="paint26_linear_132_2594" x1="467.89" y1="69.6523" x2="467.89" y2="160.388" gradientUnits="userSpaceOnUse">
<stop stop-color="white"/>
<stop offset="1" stop-color="white" stop-opacity="0.58"/>
</linearGradient>
<linearGradient id="paint27_linear_132_2594" x1="526.99" y1="31.7773" x2="526.99" y2="57.6918" gradientUnits="userSpaceOnUse">
<stop stop-color="white"/>
<stop offset="1" stop-color="white" stop-opacity="0.58"/>
</linearGradient>
<linearGradient id="paint28_linear_132_2594" x1="525.505" y1="79.3457" x2="525.505" y2="116.676" gradientUnits="userSpaceOnUse">
<stop stop-color="white"/>
<stop offset="1" stop-color="white" stop-opacity="0.58"/>
</linearGradient>
<linearGradient id="paint29_linear_132_2594" x1="466.099" y1="131.532" x2="466.099" y2="203.225" gradientUnits="userSpaceOnUse">
<stop stop-color="white"/>
<stop offset="1" stop-color="white" stop-opacity="0.58"/>
</linearGradient>
<linearGradient id="paint30_linear_132_2594" x1="506.818" y1="132.461" x2="506.818" y2="185.021" gradientUnits="userSpaceOnUse">
<stop stop-color="white"/>
<stop offset="1" stop-color="white" stop-opacity="0.58"/>
</linearGradient>
<linearGradient id="paint31_linear_132_2594" x1="451.455" y1="195.125" x2="451.455" y2="240.3" gradientUnits="userSpaceOnUse">
<stop stop-color="white"/>
<stop offset="1" stop-color="white" stop-opacity="0.58"/>
</linearGradient>
<linearGradient id="paint32_linear_132_2594" x1="277.5" y1="163" x2="277.5" y2="263" gradientUnits="userSpaceOnUse">
<stop stop-color="white"/>
<stop offset="1" stop-color="white" stop-opacity="0.82"/>
</linearGradient>
<linearGradient id="paint33_linear_132_2594" x1="845.5" y1="86" x2="845.5" y2="211" gradientUnits="userSpaceOnUse">
<stop stop-color="white"/>
<stop offset="1" stop-color="white" stop-opacity="0.54"/>
</linearGradient>
</defs>
</svg>
