<svg width="126" height="126" viewBox="0 0 126 126" fill="none" xmlns="http://www.w3.org/2000/svg">
<path d="M0 45.2833C0 29.4327 0 21.5074 3.08474 15.4532C5.79816 10.1278 10.1278 5.79816 15.4532 3.08474C21.5074 0 29.4327 0 45.2833 0H79.8417C95.6923 0 103.618 0 109.672 3.08474C114.997 5.79816 119.327 10.1278 122.04 15.4532C125.125 21.5074 125.125 29.4327 125.125 45.2833V79.8417C125.125 95.6923 125.125 103.618 122.04 109.672C119.327 114.997 114.997 119.327 109.672 122.04C103.618 125.125 95.6923 125.125 79.8417 125.125H45.2833C29.4327 125.125 21.5074 125.125 15.4532 122.04C10.1278 119.327 5.79816 114.997 3.08474 109.672C0 103.618 0 95.6923 0 79.8417V45.2833Z" fill="#470137"/>
<path d="M65.4515 36.7948L49.8389 63.2246L66.5426 91.2901C66.8898 91.9264 66.5426 92.0669 66.039 92.0669H54.1199C53.2804 92.0669 52.6928 92.0365 52.357 91.4621C51.2369 89.2239 50.1178 86.9999 48.9995 84.7902C47.8795 82.5814 46.6904 80.3286 45.4323 78.0321C44.1732 75.7373 42.9281 73.4129 41.697 71.0587C40.5769 73.3549 39.3318 75.6507 38.1295 77.946C36.9257 80.2422 35.7366 82.5236 34.5623 84.7902C33.3872 87.0581 32.1841 89.3108 30.953 91.5483C30.7287 92.0649 30.3364 92.1181 29.7777 92.1181H18.2783C17.8265 92.1181 17.772 91.7785 18.0266 91.3761L34.2265 64.0854L18.4461 36.7087C18.1595 36.3181 18.4062 35.9018 18.8659 35.9339H30.701C31.2135 35.9049 31.6664 36.0983 31.9601 36.5366C32.9674 38.8327 34.0866 41.1284 35.3176 43.4238C36.5479 45.72 37.793 47.987 39.0528 50.2249C40.3119 52.4633 41.5571 54.7303 42.6203 57.026C43.7389 54.6733 44.8721 52.3776 46.0198 50.1389C47.1661 47.9005 48.3412 45.6478 49.5451 43.3807C50.7479 41.1141 51.9091 38.8614 53.0286 36.6226C53.1773 36.1316 53.5329 35.8827 54.0359 35.9339H65.0317C65.4515 35.9339 65.6251 36.5069 65.4515 36.7948Z" fill="#FF61F6"/>
<path d="M89.541 93.1847C82.1384 93.3001 74.3846 90.2524 70.4871 83.4995C68.5839 80.2576 67.6326 76.197 67.6331 71.3177C67.6016 67.3665 68.5859 63.4766 70.4871 60.0399C75.3923 51.2714 85.2744 47.9861 94.6611 48.8482V31.8884C94.6611 31.4875 94.8291 31.2858 95.1649 31.2858H105.741C106.03 31.2434 106.286 31.5057 106.245 31.8022V82.6816C106.245 84.7809 106.453 86.8727 106.58 88.9661C106.601 89.3238 106.394 89.6775 106.077 89.8271C100.851 92.0624 95.197 93.1588 89.541 93.1847ZM94.6611 82.5094V59.0068C86.9947 56.8767 79.5513 62.7163 79.5522 70.8011C79.3702 79.1599 86.5756 84.9348 94.6611 82.5094Z" fill="#FF61F6"/>
</svg>
