<svg width="84" height="128" viewBox="0 0 84 128" fill="none" xmlns="http://www.w3.org/2000/svg">
<path fill-rule="evenodd" clip-rule="evenodd" d="M41.7319 63.75C41.7319 52.0139 51.0739 42.5 62.5979 42.5C74.1219 42.5 83.4639 52.0139 83.4639 63.75C83.4639 75.4861 74.1219 85 62.5979 85C51.0739 85 41.7319 75.4861 41.7319 63.75Z" fill="#1ABCFE"/>
<path fill-rule="evenodd" clip-rule="evenodd" d="M0 106.25C0 94.514 9.34201 85 20.866 85H41.7319V106.25C41.7319 117.986 32.3899 127.5 20.866 127.5C9.34201 127.5 0 117.986 0 106.25Z" fill="#0ACF83"/>
<path fill-rule="evenodd" clip-rule="evenodd" d="M41.7319 0V42.5H62.5979C74.1219 42.5 83.4639 32.9861 83.4639 21.25C83.4639 9.51395 74.1219 0 62.5979 0H41.7319Z" fill="#FF7262"/>
<path fill-rule="evenodd" clip-rule="evenodd" d="M0 21.25C0 32.9861 9.34201 42.5 20.866 42.5H41.7319V0H20.866C9.34201 0 0 9.51395 0 21.25Z" fill="#F24E1E"/>
<path fill-rule="evenodd" clip-rule="evenodd" d="M0 63.75C0 75.4861 9.34201 85 20.866 85H41.7319V42.5H20.866C9.34201 42.5 0 52.0139 0 63.75Z" fill="#A259FF"/>
</svg>
