<svg width="126" height="126" viewBox="0 0 126 126" fill="none" xmlns="http://www.w3.org/2000/svg">
<path d="M0 45.2833C0 29.4327 0 21.5074 3.08474 15.4532C5.79816 10.1278 10.1278 5.79816 15.4532 3.08474C21.5074 0 29.4327 0 45.2833 0H79.8417C95.6923 0 103.618 0 109.672 3.08474C114.997 5.79816 119.327 10.1278 122.04 15.4532C125.125 21.5074 125.125 29.4327 125.125 45.2833V79.8417C125.125 95.6923 125.125 103.618 122.04 109.672C119.327 114.997 114.997 119.327 109.672 122.04C103.618 125.125 95.6923 125.125 79.8417 125.125H45.2833C29.4327 125.125 21.5074 125.125 15.4532 122.04C10.1278 119.327 5.79816 114.997 3.08474 109.672C0 103.618 0 95.6923 0 79.8417V45.2833Z" fill="#330000"/>
<path d="M60.6338 78.6333H41.2442L37.2992 91.2025C37.1896 91.6695 36.7596 92.0003 36.2918 91.9773H26.4711C25.9111 91.9773 25.7152 91.6617 25.8836 91.0304L42.671 41.4423C42.8391 40.9259 43.007 40.3376 43.1748 39.6774C43.3944 38.5288 43.5068 37.3614 43.5106 36.1909C43.4625 35.8451 43.7664 35.5397 44.0981 35.5882H57.4441C57.8351 35.5882 58.059 35.7317 58.1157 36.0187L77.1698 91.1164C77.3376 91.6908 77.1696 91.9778 76.666 91.9773H65.754C65.3712 92.0208 65.0058 91.7584 64.9146 91.3747L60.6338 78.6333ZM44.2659 67.786H57.5281C55.3492 60.3403 52.8902 52.9924 50.8972 45.4886C48.7468 53.005 46.4007 60.4911 44.2659 67.786Z" fill="#FF9A00"/>
<path d="M88.5003 44.7135C87.6442 44.7488 86.7904 44.5983 85.9949 44.2719C85.1994 43.9456 84.48 43.4506 83.8837 42.8195C83.2891 42.1611 82.8273 41.3886 82.5247 40.5464C82.2222 39.7043 82.0849 38.8091 82.1208 37.9124C82.0903 37.0245 82.2428 36.1401 82.5682 35.3167C82.8936 34.4934 83.3848 33.7498 84.0095 33.1344C84.6281 32.5253 85.3584 32.0481 86.158 31.7304C86.9577 31.4127 87.8108 31.2608 88.668 31.2835C90.6827 31.2835 92.2636 31.9004 93.4106 33.1344C93.9897 33.7756 94.4397 34.5277 94.7349 35.3476C95.0302 36.1675 95.1649 37.0391 95.1313 37.9124C95.1664 38.8126 95.0247 39.7109 94.7147 40.5539C94.4047 41.3969 93.9326 42.1673 93.3266 42.8195C92.6933 43.4599 91.9374 43.9588 91.1068 44.2848C90.2761 44.6107 89.3887 44.7567 88.5003 44.7135ZM82.7084 91.1161V49.9649C82.7084 49.4485 82.9314 49.1901 83.3799 49.1901H93.7044C94.1517 49.1901 94.3755 49.4484 94.376 49.9649V91.1161C94.376 91.6905 94.1521 91.9775 93.7044 91.977H83.4639C82.9604 91.977 82.7086 91.6901 82.7084 91.1161Z" fill="#FF9A00"/>
</svg>
