<svg width="101" height="120" viewBox="0 0 101 120" fill="none" xmlns="http://www.w3.org/2000/svg">
<path d="M50.4386 31.6524C78.0168 12.4728 63.8629 0 63.8629 0C65.9693 19.8277 41.0755 24.5094 34.4027 38.1344C29.8494 47.4318 37.5206 55.5726 50.4294 65.8327C49.2882 63.5604 47.5281 61.3523 45.7462 59.1168C39.6688 51.4923 33.3377 43.5495 50.4386 31.6524Z" fill="#E76F00"/>
<path d="M54.8413 70.0389C54.8413 70.0389 63.1383 64.042 56.5677 57.3779C34.2945 34.7695 80.9281 24.5094 80.9281 24.5094C52.4563 36.7969 56.7068 44.0904 63.8631 52.9506C71.5253 62.4517 54.8413 70.0389 54.8413 70.0389Z" fill="#E76F00"/>
<path d="M79.2714 87.9214C104.828 76.2223 93.0118 64.9796 84.764 66.4942C82.7425 66.8649 81.8411 67.1861 81.8411 67.1861C81.8411 67.1861 82.5916 66.1504 84.025 65.7021C100.342 60.6487 112.89 80.6065 78.7577 88.511C78.7577 88.5114 79.1532 88.1999 79.2714 87.9214Z" fill="#1275B1"/>
<path d="M26.0918 73.114C10.1014 71.2329 34.8591 66.0527 34.8591 66.0527C34.8591 66.0527 25.2448 65.4815 13.4202 70.5168C-0.561886 76.4748 48.0059 79.1846 73.1469 73.3598C75.7607 71.7876 79.3735 70.4246 79.3735 70.4246C79.3735 70.4246 69.0854 72.0434 58.8396 72.8048C46.3027 73.7301 32.8435 73.9103 26.0918 73.114Z" fill="#1275B1"/>
<path d="M32.1755 84.2848C23.2587 83.4723 29.0972 79.6651 29.0972 79.6651C6.02366 86.4114 41.9348 94.0617 74.1763 85.7564C70.7493 84.692 68.5698 82.7456 68.5698 82.7456C52.8126 85.4185 43.7064 85.3327 32.1755 84.2848Z" fill="#1275B1"/>
<path d="M36.0607 96.3723C27.1505 95.4699 32.3561 92.8032 32.3561 92.8032C11.4109 97.9588 45.096 108.61 71.7626 98.542C67.3949 97.0457 64.2674 95.3182 64.2674 95.3182C52.372 97.3016 46.8551 97.4571 36.0607 96.3723Z" fill="#1275B1"/>
<path d="M91.8363 102.521C91.8363 102.521 95.6885 105.317 87.5938 107.48C72.2015 111.588 23.5295 112.828 10.0086 107.644C5.14817 105.781 14.2628 103.196 17.1299 102.654C20.1201 102.083 21.8288 102.189 21.8288 102.189C16.4235 98.8347 -13.1087 108.776 6.82791 111.622C61.1979 119.39 105.939 108.125 91.8363 102.521Z" fill="#1275B1"/>
<path d="M100.465 108.63C99.5731 118.856 61.9021 121.007 37.3706 119.623C21.3669 118.719 18.1596 116.46 18.1127 116.427C33.4293 118.651 59.2531 119.056 80.1913 115.585C98.7503 112.507 100.465 108.63 100.465 108.63Z" fill="#1275B1"/>
</svg>
