<svg width="123" height="123" viewBox="0 0 123 123" fill="none" xmlns="http://www.w3.org/2000/svg">
<path fill-rule="evenodd" clip-rule="evenodd" d="M60.392 0C48.3477 0 38.5838 9.52806 38.5838 21.2815V36.0149H76.3288V40.1075H21.8082C9.76387 40.1075 0 49.6355 0 61.389L2.38317e-06 93.3113C2.38317e-06 105.065 9.76388 114.593 21.8082 114.593H34.3899V96.5854C34.3899 84.8319 44.1538 75.3038 56.1981 75.3038H96.4595C106.651 75.3038 114.913 67.2416 114.913 57.2964V21.2815C114.913 9.52806 105.149 0 93.1043 0H60.392ZM55.3593 26.1926C59.5285 26.1926 62.9083 22.8945 62.9083 18.826C62.9083 14.7575 59.5285 11.4593 55.3593 11.4593C51.1901 11.4593 47.8103 14.7575 47.8103 18.826C47.8103 22.8945 51.1901 26.1926 55.3593 26.1926Z" fill="url(#paint0_linear_106_1855)"/>
<path fill-rule="evenodd" clip-rule="evenodd" d="M62.608 123C74.6523 123 84.4162 113.472 84.4162 101.719V86.9852L46.6712 86.9851L46.6712 82.8925L101.192 82.8926C113.236 82.8926 123 73.3645 123 61.611V29.6888C123 17.9353 113.236 8.40723 101.192 8.40723L88.6101 8.40723V26.4147C88.6101 38.1681 78.8462 47.6962 66.8019 47.6962L26.5405 47.6962C16.3492 47.6962 8.08741 55.7584 8.08741 65.7036L8.0874 101.719C8.0874 113.472 17.8513 123 29.8956 123H62.608ZM67.6406 96.8074C63.4714 96.8074 60.0916 100.106 60.0916 104.174C60.0916 108.243 63.4714 111.541 67.6406 111.541C71.8098 111.541 75.1896 108.243 75.1896 104.174C75.1896 100.106 71.8098 96.8074 67.6406 96.8074Z" fill="url(#paint1_linear_106_1855)"/>
<defs>
<linearGradient id="paint0_linear_106_1855" x1="57.4563" y1="0" x2="57.4563" y2="114.593" gradientUnits="userSpaceOnUse">
<stop stop-color="#327EBD"/>
<stop offset="1" stop-color="#1565A7"/>
</linearGradient>
<linearGradient id="paint1_linear_106_1855" x1="65.5437" y1="8.40723" x2="65.5437" y2="123" gradientUnits="userSpaceOnUse">
<stop stop-color="#FFDA4B"/>
<stop offset="1" stop-color="#F9C600"/>
</linearGradient>
</defs>
</svg>
