<svg width="550" height="400" viewBox="0 0 550 400" fill="none" xmlns="http://www.w3.org/2000/svg">
<g clip-path="url(#clip0_8_4209)">
<path d="M320.36 70.5153C330.668 70.5153 339.023 62.1594 339.023 51.8519C339.023 41.5444 330.668 33.1884 320.36 33.1884C310.052 33.1884 301.697 41.5444 301.697 51.8519C301.697 62.1594 310.052 70.5153 320.36 70.5153Z" fill="#F2F2F2"/>
<path d="M465.138 347.502C492.879 326.373 506.129 290.866 497.834 256.996C497.628 256.154 497.41 255.315 497.181 254.477C491.682 234.372 478.077 215.263 458.248 208.839C441.598 203.445 423.425 207.593 406.055 205.448C371.958 201.237 345.523 173.648 326.922 144.763C308.322 115.877 294.027 83.543 269.311 59.6791C228.57 20.3434 162.113 11.8744 111.601 37.479C61.0888 63.0837 28.9132 119.89 30.2854 176.504C31.6577 233.118 65.267 287.245 114.076 315.963C132.007 326.513 152.745 333.987 173.384 331.372C191.292 329.103 207.564 319.48 225.388 316.623C253.411 312.132 281.255 324.802 305.493 339.567C329.731 354.331 353.143 371.832 380.686 378.677C407.43 385.323 440.564 366.22 465.138 347.502Z" fill="#F2F2F2"/>
<path d="M425.281 38.6679C424.673 38.2625 424.058 37.878 423.449 37.4866C405.871 26.2439 387.029 17.1105 367.314 10.2751L362.743 73.3375H333.763V1.06942C331.938 0.691964 330.1 0.335483 328.262 -3.05176e-05V73.3375H293.823C274.863 73.3375 256.681 65.8061 243.275 52.4C229.869 38.994 222.337 20.8114 222.337 1.85236V1.8523C220.492 2.25072 218.661 2.6771 216.829 3.13144V73.3376H188.779L184.424 13.2038C164.164 20.974 144.93 31.1921 127.149 43.6307C126.842 43.8404 126.534 44.057 126.234 44.2667C124.689 45.3502 123.165 46.4546 121.648 47.573V288.157H204.317L202.857 267.921L194.818 156.817H356.696L348.658 267.921L347.197 288.157H428.951V41.1003C427.734 40.2756 426.511 39.4647 425.281 38.6679ZM216.829 138.469H193.49L189.177 78.8456H216.829V138.469ZM328.262 138.469H289.063V137.288C289.063 136.72 288.951 136.158 288.733 135.633C288.516 135.108 288.197 134.632 287.795 134.231C287.393 133.829 286.916 133.511 286.391 133.295C285.866 133.078 285.304 132.967 284.736 132.968H267.695C267.127 132.968 266.565 133.079 266.041 133.296C265.517 133.513 265.041 133.832 264.64 134.233C264.238 134.634 263.92 135.11 263.703 135.634C263.486 136.159 263.375 136.72 263.375 137.288V138.469H222.337V78.8456H328.262V138.469ZM333.763 138.469V78.8456H362.344L358.031 138.469H333.763Z" fill="#7C15CF"/>
<path d="M0 303.563C6.07227 310.758 12.6401 317.52 19.6555 323.799L530.32 324.498C537.336 318.219 543.904 311.457 549.976 304.262L0 303.563Z" fill="#564FCC"/>
<path d="M346.298 238.767V298.673C346.299 299.437 346.602 300.169 347.142 300.709C347.682 301.248 348.414 301.552 349.177 301.553H437.952C438.715 301.552 439.447 301.248 439.987 300.709C440.527 300.169 440.83 299.437 440.831 298.673V238.767C440.829 238.005 440.525 237.274 439.985 236.735C439.446 236.196 438.715 235.892 437.952 235.891H349.177C348.415 235.892 347.683 236.196 347.144 236.735C346.604 237.274 346.3 238.005 346.298 238.767Z" fill="#3F3D56"/>
<path d="M348.381 239.513V297.934C348.382 298.342 348.544 298.733 348.833 299.022C349.121 299.31 349.512 299.472 349.92 299.473H437.213C437.621 299.472 438.012 299.31 438.3 299.022C438.589 298.733 438.751 298.342 438.752 297.934V239.513C438.752 239.104 438.59 238.713 438.301 238.424C438.013 238.135 437.621 237.972 437.213 237.971H349.92C349.511 237.972 349.12 238.135 348.832 238.424C348.543 238.713 348.381 239.104 348.381 239.513Z" fill="#6C63FF"/>
<path d="M344.442 310.357C344.605 310.56 344.811 310.725 345.047 310.837C345.282 310.95 345.539 311.008 345.8 311.007H440.857C441.117 311.006 441.373 310.948 441.608 310.836C441.843 310.724 442.049 310.561 442.213 310.359C442.377 310.157 442.493 309.921 442.555 309.669C442.616 309.416 442.62 309.153 442.567 308.899L441.091 301.89C441.03 301.604 440.898 301.338 440.708 301.116C440.518 300.894 440.275 300.723 440.002 300.619C439.804 300.541 439.594 300.502 439.381 300.502H347.27C347.058 300.502 346.847 300.541 346.649 300.619C346.376 300.723 346.133 300.894 345.943 301.116C345.753 301.338 345.621 301.604 345.56 301.89L344.085 308.899C344.032 309.153 344.037 309.416 344.099 309.668C344.161 309.92 344.278 310.155 344.442 310.357Z" fill="#2F2E41"/>
<path d="M436.12 303.521H438.365C438.553 303.521 438.706 303.368 438.706 303.18V302.105C438.706 301.917 438.553 301.764 438.365 301.764H436.12C435.931 301.764 435.778 301.917 435.778 302.105V303.18C435.778 303.368 435.931 303.521 436.12 303.521Z" fill="#3F3D56"/>
<path d="M430.264 303.521H432.509C432.698 303.521 432.851 303.368 432.851 303.18V302.105C432.851 301.917 432.698 301.764 432.509 301.764H430.264C430.076 301.764 429.923 301.917 429.923 302.105V303.18C429.923 303.368 430.076 303.521 430.264 303.521Z" fill="#3F3D56"/>
<path d="M424.409 303.521H426.654C426.842 303.521 426.995 303.368 426.995 303.18V302.105C426.995 301.917 426.842 301.764 426.654 301.764H424.409C424.22 301.764 424.067 301.917 424.067 302.105V303.18C424.067 303.368 424.22 303.521 424.409 303.521Z" fill="#3F3D56"/>
<path d="M418.553 303.521H420.799C420.987 303.521 421.14 303.368 421.14 303.18V302.105C421.14 301.917 420.987 301.764 420.799 301.764H418.553C418.365 301.764 418.212 301.917 418.212 302.105V303.18C418.212 303.368 418.365 303.521 418.553 303.521Z" fill="#3F3D56"/>
<path d="M412.698 303.521H414.943C415.132 303.521 415.284 303.368 415.284 303.18V302.105C415.284 301.917 415.132 301.764 414.943 301.764H412.698C412.51 301.764 412.357 301.917 412.357 302.105V303.18C412.357 303.368 412.51 303.521 412.698 303.521Z" fill="#3F3D56"/>
<path d="M406.842 303.521H409.088C409.276 303.521 409.429 303.368 409.429 303.18V302.105C409.429 301.917 409.276 301.764 409.088 301.764H406.842C406.654 301.764 406.501 301.917 406.501 302.105V303.18C406.501 303.368 406.654 303.521 406.842 303.521Z" fill="#3F3D56"/>
<path d="M400.987 303.521H403.233C403.421 303.521 403.574 303.368 403.574 303.18V302.105C403.574 301.917 403.421 301.764 403.233 301.764H400.987C400.799 301.764 400.646 301.917 400.646 302.105V303.18C400.646 303.368 400.799 303.521 400.987 303.521Z" fill="#3F3D56"/>
<path d="M395.132 303.521H397.377C397.565 303.521 397.718 303.368 397.718 303.18V302.105C397.718 301.917 397.565 301.764 397.377 301.764H395.132C394.943 301.764 394.791 301.917 394.791 302.105V303.18C394.791 303.368 394.943 303.521 395.132 303.521Z" fill="#3F3D56"/>
<path d="M389.276 303.521H391.522C391.71 303.521 391.863 303.368 391.863 303.18V302.105C391.863 301.917 391.71 301.764 391.522 301.764H389.276C389.088 301.764 388.935 301.917 388.935 302.105V303.18C388.935 303.368 389.088 303.521 389.276 303.521Z" fill="#3F3D56"/>
<path d="M383.421 303.521H385.666C385.855 303.521 386.008 303.368 386.008 303.18V302.105C386.008 301.917 385.855 301.764 385.666 301.764H383.421C383.233 301.764 383.08 301.917 383.08 302.105V303.18C383.08 303.368 383.233 303.521 383.421 303.521Z" fill="#3F3D56"/>
<path d="M377.566 303.521H379.811C379.999 303.521 380.152 303.368 380.152 303.18V302.105C380.152 301.917 379.999 301.764 379.811 301.764H377.566C377.377 301.764 377.224 301.917 377.224 302.105V303.18C377.224 303.368 377.377 303.521 377.566 303.521Z" fill="#3F3D56"/>
<path d="M371.71 303.521H373.955C374.144 303.521 374.297 303.368 374.297 303.18V302.105C374.297 301.917 374.144 301.764 373.955 301.764H371.71C371.522 301.764 371.369 301.917 371.369 302.105V303.18C371.369 303.368 371.522 303.521 371.71 303.521Z" fill="#3F3D56"/>
<path d="M365.855 303.521H368.1C368.289 303.521 368.441 303.368 368.441 303.18V302.105C368.441 301.917 368.289 301.764 368.1 301.764H365.855C365.666 301.764 365.514 301.917 365.514 302.105V303.18C365.514 303.368 365.666 303.521 365.855 303.521Z" fill="#3F3D56"/>
<path d="M359.999 303.521H362.245C362.433 303.521 362.586 303.368 362.586 303.18V302.105C362.586 301.917 362.433 301.764 362.245 301.764H359.999C359.811 301.764 359.658 301.917 359.658 302.105V303.18C359.658 303.368 359.811 303.521 359.999 303.521Z" fill="#3F3D56"/>
<path d="M354.144 303.521H356.389C356.578 303.521 356.73 303.368 356.73 303.18V302.105C356.73 301.917 356.578 301.764 356.389 301.764H354.144C353.956 301.764 353.803 301.917 353.803 302.105V303.18C353.803 303.368 353.956 303.521 354.144 303.521Z" fill="#3F3D56"/>
<path d="M348.289 303.521H350.534C350.722 303.521 350.875 303.368 350.875 303.18V302.105C350.875 301.917 350.722 301.764 350.534 301.764H348.289C348.1 301.764 347.947 301.917 347.947 302.105V303.18C347.947 303.368 348.1 303.521 348.289 303.521Z" fill="#3F3D56"/>
<path d="M436.189 306.449H438.434C438.622 306.449 438.775 306.296 438.775 306.107V305.033C438.775 304.845 438.622 304.692 438.434 304.692H436.189C436 304.692 435.847 304.845 435.847 305.033V306.107C435.847 306.296 436 306.449 436.189 306.449Z" fill="#3F3D56"/>
<path d="M430.333 306.449H432.578C432.767 306.449 432.92 306.296 432.92 306.107V305.033C432.92 304.845 432.767 304.692 432.578 304.692H430.333C430.145 304.692 429.992 304.845 429.992 305.033V306.107C429.992 306.296 430.145 306.449 430.333 306.449Z" fill="#3F3D56"/>
<path d="M424.478 306.449H426.723C426.912 306.449 427.064 306.296 427.064 306.107V305.033C427.064 304.845 426.912 304.692 426.723 304.692H424.478C424.29 304.692 424.137 304.845 424.137 305.033V306.107C424.137 306.296 424.29 306.449 424.478 306.449Z" fill="#3F3D56"/>
<path d="M418.622 306.449H420.868C421.056 306.449 421.209 306.296 421.209 306.107V305.033C421.209 304.845 421.056 304.692 420.868 304.692H418.622C418.434 304.692 418.281 304.845 418.281 305.033V306.107C418.281 306.296 418.434 306.449 418.622 306.449Z" fill="#3F3D56"/>
<path d="M412.767 306.449H415.012C415.201 306.449 415.354 306.296 415.354 306.107V305.033C415.354 304.845 415.201 304.692 415.012 304.692H412.767C412.579 304.692 412.426 304.845 412.426 305.033V306.107C412.426 306.296 412.579 306.449 412.767 306.449Z" fill="#3F3D56"/>
<path d="M406.912 306.449H409.157C409.345 306.449 409.498 306.296 409.498 306.107V305.033C409.498 304.845 409.345 304.692 409.157 304.692H406.912C406.723 304.692 406.57 304.845 406.57 305.033V306.107C406.57 306.296 406.723 306.449 406.912 306.449Z" fill="#3F3D56"/>
<path d="M401.056 306.449H403.302C403.49 306.449 403.643 306.296 403.643 306.107V305.033C403.643 304.845 403.49 304.692 403.302 304.692H401.056C400.868 304.692 400.715 304.845 400.715 305.033V306.107C400.715 306.296 400.868 306.449 401.056 306.449Z" fill="#3F3D56"/>
<path d="M395.201 306.449H397.446C397.635 306.449 397.787 306.296 397.787 306.107V305.033C397.787 304.845 397.635 304.692 397.446 304.692H395.201C395.012 304.692 394.86 304.845 394.86 305.033V306.107C394.86 306.296 395.012 306.449 395.201 306.449Z" fill="#3F3D56"/>
<path d="M389.346 306.449H391.591C391.779 306.449 391.932 306.296 391.932 306.107V305.033C391.932 304.845 391.779 304.692 391.591 304.692H389.346C389.157 304.692 389.004 304.845 389.004 305.033V306.107C389.004 306.296 389.157 306.449 389.346 306.449Z" fill="#3F3D56"/>
<path d="M383.49 306.449H385.735C385.924 306.449 386.077 306.296 386.077 306.107V305.033C386.077 304.845 385.924 304.692 385.735 304.692H383.49C383.302 304.692 383.149 304.845 383.149 305.033V306.107C383.149 306.296 383.302 306.449 383.49 306.449Z" fill="#3F3D56"/>
<path d="M377.635 306.449H379.88C380.068 306.449 380.221 306.296 380.221 306.107V305.033C380.221 304.845 380.068 304.692 379.88 304.692H377.635C377.446 304.692 377.294 304.845 377.294 305.033V306.107C377.294 306.296 377.446 306.449 377.635 306.449Z" fill="#3F3D56"/>
<path d="M371.779 306.449H374.025C374.213 306.449 374.366 306.296 374.366 306.107V305.033C374.366 304.845 374.213 304.692 374.025 304.692H371.779C371.591 304.692 371.438 304.845 371.438 305.033V306.107C371.438 306.296 371.591 306.449 371.779 306.449Z" fill="#3F3D56"/>
<path d="M365.924 306.449H368.169C368.358 306.449 368.51 306.296 368.51 306.107V305.033C368.51 304.845 368.358 304.692 368.169 304.692H365.924C365.736 304.692 365.583 304.845 365.583 305.033V306.107C365.583 306.296 365.736 306.449 365.924 306.449Z" fill="#3F3D56"/>
<path d="M360.069 306.449H362.314C362.502 306.449 362.655 306.296 362.655 306.107V305.033C362.655 304.845 362.502 304.692 362.314 304.692H360.069C359.88 304.692 359.727 304.845 359.727 305.033V306.107C359.727 306.296 359.88 306.449 360.069 306.449Z" fill="#3F3D56"/>
<path d="M354.213 306.449H356.459C356.647 306.449 356.8 306.296 356.8 306.107V305.033C356.8 304.845 356.647 304.692 356.459 304.692H354.213C354.025 304.692 353.872 304.845 353.872 305.033V306.107C353.872 306.296 354.025 306.449 354.213 306.449Z" fill="#3F3D56"/>
<path d="M348.358 306.449H350.603C350.792 306.449 350.944 306.296 350.944 306.107V305.033C350.944 304.845 350.792 304.692 350.603 304.692H348.358C348.169 304.692 348.017 304.845 348.017 305.033V306.107C348.017 306.296 348.169 306.449 348.358 306.449Z" fill="#3F3D56"/>
<path d="M387.589 309.962H410.328C410.516 309.962 410.669 309.809 410.669 309.621V308.546C410.669 308.358 410.516 308.205 410.328 308.205H387.589C387.4 308.205 387.248 308.358 387.248 308.546V309.621C387.248 309.809 387.4 309.962 387.589 309.962Z" fill="#3F3D56"/>
<path d="M363.498 250.752H361.51C360.907 250.752 360.419 251.241 360.419 251.843C360.419 252.446 360.907 252.934 361.51 252.934H363.498C364.1 252.934 364.589 252.446 364.589 251.843C364.589 251.241 364.1 250.752 363.498 250.752Z" fill="white"/>
<path d="M386.231 250.752H384.243C383.64 250.752 383.152 251.241 383.152 251.843C383.152 252.446 383.64 252.934 384.243 252.934H386.231C386.833 252.934 387.322 252.446 387.322 251.843C387.322 251.241 386.833 250.752 386.231 250.752Z" fill="white"/>
<path d="M392.672 250.752H390.684C390.081 250.752 389.593 251.241 389.593 251.843C389.593 252.446 390.081 252.934 390.684 252.934H392.672C393.274 252.934 393.763 252.446 393.763 251.843C393.763 251.241 393.274 250.752 392.672 250.752Z" fill="white"/>
<path d="M380.047 250.57H367.693C367.091 250.57 366.602 251.059 366.602 251.661C366.602 252.264 367.091 252.753 367.693 252.753H380.047C380.65 252.753 381.138 252.264 381.138 251.661C381.138 251.059 380.65 250.57 380.047 250.57Z" fill="white"/>
<path d="M410.358 250.57H398.004C397.402 250.57 396.913 251.059 396.913 251.661C396.913 252.264 397.402 252.753 398.004 252.753H410.358C410.961 252.753 411.449 252.264 411.449 251.661C411.449 251.059 410.961 250.57 410.358 250.57Z" fill="white"/>
<path d="M369.56 255.678H367.572C366.97 255.678 366.481 256.166 366.481 256.769C366.481 257.371 366.97 257.86 367.572 257.86H369.56C370.162 257.86 370.651 257.371 370.651 256.769C370.651 256.166 370.162 255.678 369.56 255.678Z" fill="white"/>
<path d="M392.293 255.678H390.305C389.703 255.678 389.214 256.166 389.214 256.769C389.214 257.371 389.703 257.86 390.305 257.86H392.293C392.896 257.86 393.384 257.371 393.384 256.769C393.384 256.166 392.896 255.678 392.293 255.678Z" fill="white"/>
<path d="M398.734 255.678H396.746C396.144 255.678 395.655 256.166 395.655 256.769C395.655 257.371 396.144 257.86 396.746 257.86H398.734C399.336 257.86 399.825 257.371 399.825 256.769C399.825 256.166 399.336 255.678 398.734 255.678Z" fill="white"/>
<path d="M386.109 255.496H373.755C373.153 255.496 372.664 255.984 372.664 256.587C372.664 257.189 373.153 257.678 373.755 257.678H386.109C386.712 257.678 387.201 257.189 387.201 256.587C387.201 255.984 386.712 255.496 386.109 255.496Z" fill="white"/>
<path d="M416.42 255.496H404.066C403.464 255.496 402.975 255.984 402.975 256.587C402.975 257.189 403.464 257.678 404.066 257.678H416.42C417.023 257.678 417.511 257.189 417.511 256.587C417.511 255.984 417.023 255.496 416.42 255.496Z" fill="white"/>
<path d="M375.622 260.603H373.634C373.031 260.603 372.543 261.092 372.543 261.694C372.543 262.297 373.031 262.785 373.634 262.785H375.622C376.224 262.785 376.713 262.297 376.713 261.694C376.713 261.092 376.224 260.603 375.622 260.603Z" fill="white"/>
<path d="M398.355 260.603H396.367C395.765 260.603 395.276 261.092 395.276 261.694C395.276 262.297 395.765 262.785 396.367 262.785H398.355C398.958 262.785 399.446 262.297 399.446 261.694C399.446 261.092 398.958 260.603 398.355 260.603Z" fill="white"/>
<path d="M404.796 260.603H402.808C402.206 260.603 401.717 261.092 401.717 261.694C401.717 262.297 402.206 262.785 402.808 262.785H404.796C405.399 262.785 405.887 262.297 405.887 261.694C405.887 261.092 405.399 260.603 404.796 260.603Z" fill="white"/>
<path d="M392.172 260.421H379.818C379.215 260.421 378.727 260.91 378.727 261.512C378.727 262.115 379.215 262.604 379.818 262.604H392.172C392.774 262.604 393.263 262.115 393.263 261.512C393.263 260.91 392.774 260.421 392.172 260.421Z" fill="white"/>
<path d="M422.482 260.421H410.129C409.526 260.421 409.037 260.91 409.037 261.512C409.037 262.115 409.526 262.604 410.129 262.604H422.482C423.085 262.604 423.574 262.115 423.574 261.512C423.574 260.91 423.085 260.421 422.482 260.421Z" fill="white"/>
<path d="M381.684 265.529H379.696C379.094 265.529 378.605 266.017 378.605 266.62C378.605 267.222 379.094 267.711 379.696 267.711H381.684C382.287 267.711 382.775 267.222 382.775 266.62C382.775 266.017 382.287 265.529 381.684 265.529Z" fill="white"/>
<path d="M404.417 265.529H402.43C401.827 265.529 401.338 266.017 401.338 266.62C401.338 267.222 401.827 267.711 402.43 267.711H404.417C405.02 267.711 405.508 267.222 405.508 266.62C405.508 266.017 405.02 265.529 404.417 265.529Z" fill="white"/>
<path d="M410.858 265.529H408.87C408.268 265.529 407.779 266.017 407.779 266.62C407.779 267.222 408.268 267.711 408.87 267.711H410.858C411.461 267.711 411.949 267.222 411.949 266.62C411.949 266.017 411.461 265.529 410.858 265.529Z" fill="white"/>
<path d="M398.234 265.347H385.88C385.277 265.347 384.789 265.835 384.789 266.438C384.789 267.04 385.277 267.529 385.88 267.529H398.234C398.836 267.529 399.325 267.04 399.325 266.438C399.325 265.835 398.836 265.347 398.234 265.347Z" fill="white"/>
<path d="M386.231 285.115H384.243C383.64 285.115 383.152 285.603 383.152 286.206C383.152 286.808 383.64 287.297 384.243 287.297H386.231C386.833 287.297 387.322 286.808 387.322 286.206C387.322 285.603 386.833 285.115 386.231 285.115Z" fill="white"/>
<path d="M392.672 285.115H390.684C390.081 285.115 389.593 285.603 389.593 286.206C389.593 286.808 390.081 287.297 390.684 287.297H392.672C393.274 287.297 393.763 286.808 393.763 286.206C393.763 285.603 393.274 285.115 392.672 285.115Z" fill="white"/>
<path d="M410.358 285.296H398.004C397.402 285.296 396.913 285.785 396.913 286.388C396.913 286.99 397.402 287.479 398.004 287.479H410.358C410.961 287.479 411.449 286.99 411.449 286.388C411.449 285.785 410.961 285.296 410.358 285.296Z" fill="white"/>
<path d="M363.498 285.115H361.51C360.907 285.115 360.419 285.603 360.419 286.206C360.419 286.808 360.907 287.297 361.51 287.297H363.498C364.1 287.297 364.589 286.808 364.589 286.206C364.589 285.603 364.1 285.115 363.498 285.115Z" fill="white"/>
<path d="M380.047 285.296H367.693C367.091 285.296 366.602 285.785 366.602 286.388C366.602 286.99 367.091 287.479 367.693 287.479H380.047C380.65 287.479 381.138 286.99 381.138 286.388C381.138 285.785 380.65 285.296 380.047 285.296Z" fill="white"/>
<path d="M369.56 280.189H367.572C366.97 280.189 366.481 280.678 366.481 281.28C366.481 281.883 366.97 282.371 367.572 282.371H369.56C370.162 282.371 370.651 281.883 370.651 281.28C370.651 280.678 370.162 280.189 369.56 280.189Z" fill="white"/>
<path d="M392.293 280.189H390.305C389.703 280.189 389.214 280.678 389.214 281.28C389.214 281.883 389.703 282.371 390.305 282.371H392.293C392.896 282.371 393.384 281.883 393.384 281.28C393.384 280.678 392.896 280.189 392.293 280.189Z" fill="white"/>
<path d="M398.734 280.189H396.746C396.144 280.189 395.655 280.678 395.655 281.28C395.655 281.883 396.144 282.371 396.746 282.371H398.734C399.336 282.371 399.825 281.883 399.825 281.28C399.825 280.678 399.336 280.189 398.734 280.189Z" fill="white"/>
<path d="M386.109 280.371H373.755C373.153 280.371 372.664 280.859 372.664 281.462C372.664 282.065 373.153 282.553 373.755 282.553H386.109C386.712 282.553 387.201 282.065 387.201 281.462C387.201 280.859 386.712 280.371 386.109 280.371Z" fill="white"/>
<path d="M375.622 275.264H373.634C373.031 275.264 372.543 275.752 372.543 276.355C372.543 276.957 373.031 277.446 373.634 277.446H375.622C376.224 277.446 376.713 276.957 376.713 276.355C376.713 275.752 376.224 275.264 375.622 275.264Z" fill="white"/>
<path d="M398.355 275.264H396.367C395.765 275.264 395.276 275.752 395.276 276.355C395.276 276.957 395.765 277.446 396.367 277.446H398.355C398.958 277.446 399.446 276.957 399.446 276.355C399.446 275.752 398.958 275.264 398.355 275.264Z" fill="white"/>
<path d="M404.796 275.264H402.808C402.206 275.264 401.717 275.752 401.717 276.355C401.717 276.957 402.206 277.446 402.808 277.446H404.796C405.399 277.446 405.887 276.957 405.887 276.355C405.887 275.752 405.399 275.264 404.796 275.264Z" fill="white"/>
<path d="M392.172 275.445H379.818C379.215 275.445 378.727 275.934 378.727 276.537C378.727 277.139 379.215 277.628 379.818 277.628H392.172C392.774 277.628 393.263 277.139 393.263 276.537C393.263 275.934 392.774 275.445 392.172 275.445Z" fill="white"/>
<path d="M381.684 270.338H379.696C379.094 270.338 378.605 270.827 378.605 271.429C378.605 272.032 379.094 272.52 379.696 272.52H381.684C382.287 272.52 382.775 272.032 382.775 271.429C382.775 270.827 382.287 270.338 381.684 270.338Z" fill="white"/>
<path d="M404.417 270.338H402.43C401.827 270.338 401.338 270.827 401.338 271.429C401.338 272.032 401.827 272.52 402.43 272.52H404.417C405.02 272.52 405.508 272.032 405.508 271.429C405.508 270.827 405.02 270.338 404.417 270.338Z" fill="white"/>
<path d="M410.858 270.338H408.87C408.268 270.338 407.779 270.827 407.779 271.429C407.779 272.032 408.268 272.52 408.87 272.52H410.858C411.461 272.52 411.949 272.032 411.949 271.429C411.949 270.827 411.461 270.338 410.858 270.338Z" fill="white"/>
<path d="M398.234 270.52H385.88C385.277 270.52 384.789 271.008 384.789 271.611C384.789 272.214 385.277 272.702 385.88 272.702H398.234C398.836 272.702 399.325 272.214 399.325 271.611C399.325 271.008 398.836 270.52 398.234 270.52Z" fill="white"/>
<path d="M352.93 342.84L343.599 328.09L372.888 304.742L384.977 291.348C386.548 289.608 388.547 288.311 390.776 287.586C393.006 286.861 395.386 286.734 397.68 287.217C399.973 287.7 402.1 288.776 403.847 290.339C405.595 291.902 406.901 293.895 407.637 296.121C408.726 299.419 408.492 303.012 406.983 306.141C405.474 309.27 402.809 311.69 399.549 312.89L380.433 319.933L352.93 342.84Z" fill="#FFB6B6"/>
<path d="M133.989 235.894V307.582H184.211V235.894C184.212 235.379 184.047 234.876 183.741 234.461C183.436 234.046 183.005 233.74 182.512 233.588C182.28 233.511 182.037 233.473 181.792 233.476H136.414C136.096 233.475 135.781 233.537 135.487 233.658C135.193 233.78 134.926 233.958 134.7 234.182C134.475 234.407 134.296 234.674 134.174 234.967C134.052 235.261 133.989 235.576 133.989 235.894ZM153.588 260.527C153.601 259.113 154.172 257.762 155.176 256.768C156.18 255.773 157.536 255.215 158.95 255.215C160.363 255.215 161.719 255.773 162.723 256.768C163.727 257.762 164.298 259.113 164.311 260.527V268.844C164.304 270.262 163.735 271.618 162.731 272.618C161.726 273.617 160.367 274.178 158.95 274.178C157.532 274.178 156.173 273.617 155.168 272.618C154.164 271.618 153.596 270.262 153.588 268.844V260.527Z" fill="#2F2E41"/>
<path d="M133.835 305.29V312.203C133.836 312.561 133.978 312.904 134.231 313.158C134.483 313.412 134.826 313.556 135.184 313.559H183.016C183.374 313.557 183.717 313.413 183.97 313.159C184.223 312.905 184.365 312.561 184.365 312.203V305.29H133.835Z" fill="#3F3D56"/>
<path d="M54.9824 127.887V258.779C54.9837 260.447 55.647 262.046 56.8264 263.226C58.0059 264.405 59.6053 265.069 61.2733 265.07H255.242C256.91 265.069 258.509 264.405 259.689 263.226C260.868 262.046 261.531 260.447 261.533 258.779V127.887C261.529 126.22 260.864 124.623 259.685 123.446C258.506 122.268 256.908 121.605 255.242 121.603H61.2733C59.6067 121.605 58.0089 122.268 56.8298 123.446C55.6507 124.623 54.9864 126.22 54.9824 127.887Z" fill="#3F3D56"/>
<path d="M59.5327 129.516V257.164C59.5343 258.056 59.889 258.91 60.5191 259.54C61.1493 260.17 62.0036 260.525 62.8948 260.527H253.627C254.518 260.525 255.373 260.17 256.003 259.54C256.633 258.91 256.988 258.056 256.989 257.164V129.516C256.989 128.623 256.635 127.767 256.005 127.136C255.374 126.504 254.519 126.148 253.627 126.147H62.8948C62.0025 126.148 61.1474 126.504 60.5171 127.136C59.8868 127.767 59.5328 128.623 59.5327 129.516Z" fill="white"/>
<path d="M94.9294 313.09C95.1236 313.334 95.3703 313.53 95.6512 313.664C95.9321 313.799 96.2397 313.868 96.5511 313.866H210.024C210.335 313.866 210.641 313.796 210.921 313.663C211.201 313.529 211.448 313.334 211.643 313.093C211.839 312.852 211.978 312.571 212.051 312.269C212.124 311.968 212.129 311.654 212.065 311.35L210.304 302.983C210.231 302.642 210.074 302.324 209.847 302.059C209.62 301.794 209.33 301.59 209.004 301.466C208.768 301.374 208.517 301.326 208.263 301.326H98.3055C98.052 301.326 97.8007 301.374 97.5646 301.466C97.2386 301.59 96.9488 301.794 96.7218 302.059C96.4947 302.324 96.3375 302.642 96.2645 302.983L94.5031 311.35C94.4404 311.653 94.4461 311.967 94.5199 312.268C94.5936 312.569 94.7335 312.85 94.9294 313.09Z" fill="#2F2E41"/>
<path d="M247.437 143.731H68.9695C68.784 143.727 68.6075 143.65 68.4778 143.517C68.348 143.385 68.2754 143.207 68.2754 143.021C68.2754 142.835 68.348 142.657 68.4778 142.525C68.6075 142.392 68.784 142.315 68.9695 142.311H247.437C247.622 142.315 247.799 142.392 247.929 142.525C248.058 142.657 248.131 142.835 248.131 143.021C248.131 143.207 248.058 143.385 247.929 143.517C247.799 143.65 247.622 143.727 247.437 143.731Z" fill="#3F3D56"/>
<path d="M81.1182 138.688C83.4153 138.688 85.2775 136.784 85.2775 134.436C85.2775 132.087 83.4153 130.184 81.1182 130.184C78.8211 130.184 76.959 132.087 76.959 134.436C76.959 136.784 78.8211 138.688 81.1182 138.688Z" fill="#3F3D56"/>
<path d="M95.4864 138.688C97.7835 138.688 99.6457 136.784 99.6457 134.436C99.6457 132.087 97.7835 130.184 95.4864 130.184C93.1893 130.184 91.3271 132.087 91.3271 134.436C91.3271 136.784 93.1893 138.688 95.4864 138.688Z" fill="#3F3D56"/>
<path d="M109.855 138.688C112.152 138.688 114.014 136.784 114.014 134.436C114.014 132.087 112.152 130.184 109.855 130.184C107.558 130.184 105.696 132.087 105.696 134.436C105.696 136.784 107.558 138.688 109.855 138.688Z" fill="#3F3D56"/>
<path d="M238.785 131.235H228.58C228.378 131.24 228.186 131.323 228.045 131.468C227.904 131.612 227.825 131.806 227.825 132.008C227.825 132.209 227.904 132.403 228.045 132.547C228.186 132.692 228.378 132.775 228.58 132.78H238.785C238.988 132.777 239.182 132.694 239.324 132.55C239.467 132.405 239.547 132.211 239.547 132.008C239.547 131.805 239.467 131.61 239.324 131.465C239.182 131.321 238.988 131.238 238.785 131.235Z" fill="#3F3D56"/>
<path d="M238.785 134.136H228.58C228.378 134.14 228.186 134.224 228.044 134.368C227.903 134.513 227.824 134.706 227.824 134.908C227.824 135.11 227.903 135.304 228.044 135.449C228.186 135.593 228.378 135.676 228.58 135.681H238.785C238.988 135.678 239.182 135.596 239.325 135.451C239.468 135.307 239.548 135.112 239.548 134.908C239.548 134.705 239.468 134.51 239.325 134.365C239.182 134.221 238.988 134.138 238.785 134.136Z" fill="#3F3D56"/>
<path d="M238.785 137.037H228.58C228.378 137.041 228.186 137.125 228.045 137.269C227.904 137.414 227.825 137.607 227.825 137.809C227.825 138.011 227.904 138.205 228.045 138.349C228.186 138.493 228.378 138.577 228.58 138.581H238.785C238.988 138.579 239.182 138.496 239.324 138.351C239.467 138.207 239.547 138.012 239.547 137.809C239.547 137.606 239.467 137.411 239.324 137.267C239.182 137.122 238.988 137.04 238.785 137.037Z" fill="#3F3D56"/>
<path d="M484.813 308.324C485.121 309.22 485.706 309.996 486.482 310.54C487.259 311.084 488.187 311.368 489.135 311.351L507.653 310.874C508.608 310.856 509.531 310.529 510.284 309.942C511.038 309.355 511.581 308.54 511.833 307.619L514.454 279.599C515.383 280.02 516.396 280.228 517.416 280.207C518.303 280.185 519.176 279.988 519.987 279.629C520.797 279.269 521.529 278.753 522.14 278.11C522.751 277.468 523.23 276.711 523.548 275.883C523.867 275.056 524.02 274.173 523.998 273.287C523.975 272.4 523.779 271.527 523.419 270.716C523.059 269.906 522.543 269.174 521.9 268.563C521.258 267.952 520.501 267.473 519.673 267.154C518.846 266.836 517.964 266.683 517.077 266.705C516.669 266.704 516.262 266.746 515.863 266.832C515.43 266.362 514.902 265.989 514.316 265.736C513.729 265.483 513.096 265.355 512.457 265.362L483.973 266.097C483.736 266.106 483.501 266.135 483.27 266.184C482.645 266.301 482.053 266.55 481.532 266.914C481.012 267.279 480.576 267.751 480.253 268.298C479.93 268.845 479.729 269.456 479.661 270.088C479.594 270.719 479.663 271.358 479.864 271.961L484.813 308.324ZM514.991 277.696L516.856 271.019C517.068 270.248 517.073 269.434 516.87 268.66C516.96 268.66 517.04 268.617 517.131 268.617C518.409 268.59 519.646 269.072 520.57 269.956C521.494 270.84 522.03 272.055 522.06 273.333C522.09 274.611 521.611 275.85 520.73 276.776C519.848 277.702 518.635 278.241 517.357 278.275C516.53 278.301 515.712 278.101 514.991 277.696Z" fill="#2F2E41"/>
<path d="M483.27 266.184C483.877 269.654 490.7 272.093 498.903 271.669C506.447 271.322 512.616 268.673 513.746 265.533C513.328 265.41 512.893 265.352 512.457 265.362L483.973 266.097C483.736 266.106 483.501 266.135 483.27 266.184Z" fill="#3F3D56"/>
<path d="M500.407 292.926C500.445 292.917 500.48 292.901 500.512 292.88L504.534 290.247C504.582 290.216 504.622 290.172 504.65 290.121C504.678 290.07 504.692 290.013 504.692 289.955C504.692 289.897 504.678 289.84 504.65 289.789C504.623 289.738 504.583 289.695 504.534 289.663L500.354 286.925C500.316 286.9 500.273 286.882 500.228 286.874C500.183 286.865 500.136 286.865 500.091 286.874C500.046 286.884 500.003 286.902 499.965 286.928C499.927 286.954 499.895 286.987 499.869 287.025C499.844 287.064 499.827 287.107 499.818 287.152C499.81 287.197 499.81 287.243 499.82 287.288C499.829 287.333 499.847 287.376 499.873 287.414C499.899 287.452 499.933 287.485 499.971 287.51L503.705 289.955L500.13 292.295C500.061 292.34 500.01 292.408 499.986 292.488C499.963 292.567 499.968 292.652 500.001 292.728C500.034 292.804 500.093 292.865 500.168 292.901C500.242 292.938 500.327 292.946 500.407 292.926H500.407Z" fill="#6C63FF"/>
<path d="M494.055 293.219C494.123 293.202 494.184 293.165 494.23 293.113C494.277 293.061 494.306 292.997 494.316 292.928C494.325 292.859 494.314 292.789 494.283 292.726C494.253 292.664 494.204 292.612 494.144 292.577L490.437 290.452L494.02 287.791C494.056 287.763 494.087 287.729 494.111 287.69C494.134 287.65 494.15 287.607 494.157 287.561C494.163 287.516 494.161 287.47 494.15 287.425C494.139 287.381 494.119 287.339 494.092 287.302C494.064 287.265 494.03 287.234 493.99 287.211C493.951 287.187 493.908 287.172 493.862 287.165C493.817 287.158 493.771 287.16 493.726 287.172C493.682 287.183 493.64 287.203 493.603 287.23L489.592 290.21C489.545 290.244 489.508 290.29 489.483 290.342C489.459 290.395 489.448 290.453 489.451 290.511C489.454 290.569 489.472 290.625 489.503 290.674C489.533 290.723 489.576 290.764 489.626 290.793L493.796 293.183C493.874 293.229 493.967 293.241 494.055 293.219Z" fill="#6C63FF"/>
<path d="M500.007 295.233C500.041 295.224 500.073 295.211 500.103 295.192C500.142 295.168 500.176 295.137 500.203 295.1C500.23 295.063 500.25 295.021 500.261 294.976C500.272 294.932 500.274 294.885 500.267 294.84C500.26 294.795 500.244 294.751 500.22 294.712L494.519 285.34C494.471 285.261 494.393 285.204 494.303 285.182C494.213 285.161 494.118 285.175 494.039 285.224C493.96 285.272 493.903 285.349 493.881 285.439C493.859 285.529 493.874 285.624 493.922 285.704L499.623 295.076C499.662 295.14 499.72 295.189 499.789 295.217C499.858 295.246 499.935 295.251 500.007 295.233Z" fill="#6C63FF"/>
<path d="M179.17 175H148.282C147.022 175 146 176.022 146 177.282V180.299C146 181.559 147.022 182.581 148.282 182.581H179.17C180.43 182.581 181.452 181.559 181.452 180.299V177.282C181.452 176.022 180.43 175 179.17 175Z" fill="#6C63FF"/>
<path d="M197.18 225H130.282C129.022 225 128 226.022 128 227.282V230.299C128 231.559 129.022 232.581 130.282 232.581H197.18C198.44 232.581 199.462 231.559 199.462 230.299V227.282C199.462 226.022 198.44 225 197.18 225Z" fill="#E6E6E6"/>
<path d="M203.203 263.41L203.355 263.888L203.363 263.904L207.924 277.771L213.17 293.75L223.042 323.78L223.138 328.444V328.46L223.871 365.985L221.838 371.072L224.126 379.413C224.126 379.413 223.074 366.805 217.428 374.045C214.231 378.16 210.491 382.37 207.421 386.317C211.895 388.127 216.44 389.764 221.056 391.229C222.053 391.548 223.058 391.851 224.063 392.154C224.278 392.218 224.493 392.281 224.708 392.345C240.013 396.871 255.834 399.414 271.786 399.912C272.615 399.936 273.428 399.952 274.218 399.968C274.497 399.976 274.768 399.984 275.039 399.984C275.932 399.992 276.817 400 277.71 400C279.512 400 281.306 399.973 283.093 399.92C296.313 399.548 309.456 397.77 322.3 394.618C322.212 389.315 321.973 383.119 321.63 376.501C321.47 373.256 317.89 369.739 317.675 366.343C317.523 363.791 320.737 361.391 320.569 358.799C319.485 342.844 318.129 348.969 317.125 337.67C317.021 336.562 316.925 335.501 316.838 334.488C316.192 327.232 315.745 322.695 315.745 322.695L320.035 295.656L326.773 253.203L326.255 252.35L325.673 252.063L290.133 234.473L288.204 229.529C287.642 228.105 286.666 226.881 285.403 226.016C284.14 225.151 282.646 224.683 281.115 224.673L257.704 224.578C256.489 224.572 255.29 224.856 254.207 225.407C253.124 225.957 252.188 226.758 251.476 227.743L245.137 236.522L203.203 263.41Z" fill="#3F3D56"/>
<path d="M228.44 317.097L223.138 328.444L219.517 336.195L213.29 368.8L210.172 372.109L207.501 360.394L179.543 366.602C178.626 361.507 179.298 366.774 178.731 361.185C178.891 361.025 179.058 360.866 179.226 360.706C179.672 360.292 180.047 359.901 180.039 359.526C179.72 340.245 180.677 307.433 188.667 287.555C189.918 284.309 191.568 281.231 193.579 278.393C193.738 278.177 193.89 277.962 194.041 277.747C197.725 272.588 200.053 267.508 203.355 263.896V263.888C203.375 263.872 203.394 263.853 203.41 263.833C203.422 263.827 203.433 263.818 203.442 263.809L226.12 251.784L227.093 279.118L227.786 298.766L228.44 317.097Z" fill="#3F3D56"/>
<path d="M310.211 320.32L316.834 334.492L319.146 339.428L325.372 372.029L328.48 375.331L331.157 363.619L332.415 363.361L355.103 358.662L361.716 379.664C363.206 377.18 363.793 374.259 363.378 371.392C362.963 368.526 361.57 365.891 359.436 363.933C358.985 363.524 358.608 363.126 358.619 362.75C358.995 340.073 357.608 298.664 345.082 281.622C341.103 276.213 338.716 270.826 335.243 267.063C335.232 267.052 335.232 267.041 335.222 267.041L326.77 253.203L326.254 252.353L325.673 252.063L310.211 320.32Z" fill="#3F3D56"/>
<path d="M270.086 217.915C287.287 217.915 301.231 203.971 301.231 186.769C301.231 169.568 287.287 155.624 270.086 155.624C252.884 155.624 238.94 169.568 238.94 186.769C238.94 203.971 252.884 217.915 270.086 217.915Z" fill="#FFB6B6"/>
<path d="M380.243 322.538C380.236 323.761 380.222 325.473 380.166 327.591C380.159 327.885 380.152 328.186 380.145 328.493C380.054 332.386 379.963 335.651 379.816 339.278C379.809 339.53 379.802 339.775 379.788 340.026C379.593 345.087 379.285 350.979 378.754 360.311C377.768 377.548 376.049 362.68 374.322 368.727C374.238 369.027 374.147 369.384 374.064 369.803C373.802 371.325 373.361 372.81 372.75 374.228C371.834 374.773 370.89 375.297 369.961 375.821C367.311 377.296 364.62 378.715 361.908 380.064C360.384 380.819 358.854 381.56 357.316 382.273C357.071 382.385 356.834 382.497 356.596 382.602C348.721 386.244 340.606 389.341 332.306 391.87C330.685 392.359 329.07 392.835 327.434 393.275C325.729 393.75 324.023 394.198 322.297 394.617C309.453 397.77 296.311 399.549 283.091 399.922C281.308 399.978 279.512 399.999 277.709 399.999C276.814 399.999 275.933 399.992 275.038 399.985C274.766 399.985 274.493 399.978 274.221 399.971C273.431 399.95 272.613 399.936 271.788 399.915C255.836 399.418 240.015 396.874 224.711 392.345L224.061 392.157C223.055 391.849 222.055 391.549 221.056 391.227C216.442 389.766 211.897 388.131 207.418 386.32C204 384.943 200.622 383.466 197.283 381.889C197.253 381.88 197.224 381.866 197.199 381.847C196.5 381.525 195.794 381.19 195.095 380.847C195.005 380.798 194.907 380.749 194.809 380.7C192.202 379.428 189.622 378.095 187.071 376.702C184.925 371.774 181.906 370.831 180.032 366.497C179.487 365.209 179.093 363.863 178.858 362.485C178.858 362.471 178.851 362.457 178.851 362.436C179.047 365.036 178.019 357.823 178.844 362.408C178.837 362.324 178.83 362.233 178.823 362.128C178.802 361.877 178.774 361.569 178.732 361.185C176.335 337.776 176.488 311.004 175.447 288.944C175.377 287.519 175.305 286.153 175.23 284.848C175.209 284.415 175.181 283.989 175.153 283.569C175.202 283.443 175.258 283.311 175.321 283.185C175.334 283.149 175.351 283.114 175.37 283.08C175.391 283.037 175.414 282.995 175.44 282.954C175.454 282.933 175.475 282.905 175.489 282.884C175.499 282.86 175.511 282.837 175.524 282.814C175.587 282.717 175.657 282.612 175.733 282.514C175.768 282.472 175.796 282.437 175.831 282.402C175.855 282.366 175.884 282.333 175.915 282.304C175.937 282.271 175.963 282.24 175.992 282.213C176.02 282.185 176.048 282.15 176.083 282.115C176.098 282.093 176.117 282.074 176.139 282.059C176.194 281.996 176.255 281.937 176.321 281.885C176.57 281.655 176.836 281.445 177.117 281.256C177.215 281.193 177.32 281.13 177.418 281.06C178.122 280.639 178.864 280.283 179.634 279.997C179.899 279.9 180.165 279.809 180.452 279.711C180.556 279.683 180.654 279.648 180.759 279.613C180.913 279.564 181.067 279.515 181.228 279.48C182.024 279.243 182.884 279.04 183.814 278.851C183.926 278.83 184.044 278.809 184.163 278.781C184.331 278.746 184.506 278.718 184.68 278.69C184.918 278.648 185.163 278.607 185.407 278.565C187.483 278.236 189.839 277.991 192.439 277.831C192.684 277.817 192.929 277.803 193.173 277.789C193.46 277.775 193.746 277.761 194.04 277.747C194.285 277.733 194.536 277.726 194.788 277.719C195.032 277.705 195.284 277.698 195.543 277.691C196.249 277.67 196.976 277.649 197.717 277.635C199.828 277.593 202.05 277.607 204.385 277.656C205.468 277.684 206.573 277.712 207.705 277.761C207.782 277.761 207.852 277.768 207.922 277.768C208.907 277.803 209.9 277.845 210.92 277.901C211.633 277.935 212.353 277.97 213.073 278.012C213.751 278.054 214.436 278.096 215.128 278.145C215.667 278.173 216.205 278.215 216.75 278.25C217.211 278.285 217.673 278.32 218.134 278.348L218.763 278.39C219.105 278.418 219.448 278.439 219.798 278.474C220.566 278.537 221.335 278.6 222.118 278.662C222.894 278.732 223.684 278.802 224.474 278.872C225.264 278.942 226.06 279.019 226.857 279.096C226.941 279.103 227.018 279.11 227.095 279.117C227.822 279.194 228.549 279.264 229.283 279.34C229.451 279.354 229.625 279.368 229.793 279.389C230.493 279.46 231.206 279.542 231.912 279.617C232.129 279.64 232.345 279.663 232.562 279.687C233.115 279.747 233.66 279.799 234.218 279.865C234.951 279.949 235.699 280.025 236.426 280.123C236.993 280.186 237.559 280.249 238.125 280.319C239.013 280.424 239.914 280.536 240.816 280.655C241.158 280.696 241.501 280.738 241.843 280.787C244.416 281.109 247.016 281.465 249.658 281.836C253.663 282.402 257.731 283.017 261.827 283.681C265.931 284.345 270.057 285.047 274.206 285.785C275.255 285.974 276.303 286.163 277.359 286.358C277.834 286.449 278.31 286.54 278.785 286.631C279.596 286.778 280.406 286.931 281.217 287.085C282.028 287.239 282.839 287.393 283.65 287.553C284.614 287.742 285.586 287.931 286.551 288.12C292.904 289.378 299.223 290.72 305.388 292.125C306.402 292.355 307.415 292.593 308.422 292.824C310.435 293.292 312.429 293.767 314.405 294.25C314.95 294.376 315.489 294.508 316.027 294.641C317.369 294.977 318.711 295.312 320.032 295.655L320.263 295.718C321.234 295.955 322.185 296.2 323.135 296.452C325.379 297.039 327.586 297.633 329.755 298.234C331.195 298.632 332.618 299.035 334.026 299.443C336.13 300.051 338.192 300.666 340.198 301.289C340.694 301.442 341.19 301.596 341.68 301.743C343.147 302.197 344.594 302.659 345.999 303.12C347.118 303.483 348.208 303.854 349.285 304.224C350.361 304.595 351.416 304.965 352.451 305.336C353.115 305.573 353.772 305.825 354.429 306.063C355.373 306.412 356.302 306.762 357.211 307.111C357.491 307.216 357.763 307.328 358.036 307.433C358.211 307.51 358.378 307.572 358.546 307.642C358.875 307.775 359.21 307.901 359.532 308.034C359.86 308.16 360.182 308.292 360.503 308.432C360.818 308.558 361.139 308.691 361.447 308.824C361.761 308.949 362.069 309.082 362.377 309.222C362.635 309.327 362.887 309.439 363.131 309.551C363.628 309.767 364.124 309.984 364.606 310.208C364.844 310.319 365.082 310.424 365.319 310.536L365.864 310.788C365.941 310.83 366.018 310.865 366.095 310.9C366.27 310.983 366.452 311.074 366.626 311.158C367.032 311.347 367.43 311.55 367.822 311.738C368.346 312.004 368.856 312.27 369.345 312.528C369.842 312.794 370.324 313.059 370.785 313.318C370.862 313.36 370.932 313.402 371.009 313.444C371.114 313.5 371.219 313.563 371.324 313.619C371.68 313.821 372.023 314.031 372.365 314.234C373.036 314.646 373.672 315.052 374.266 315.457C374.399 315.548 374.525 315.639 374.658 315.723C375.098 316.037 375.517 316.345 375.909 316.659C375.909 316.666 375.909 316.666 375.916 316.666C376.049 316.764 376.175 316.869 376.3 316.967C376.405 317.065 376.517 317.149 376.622 317.246C376.985 317.561 377.321 317.861 377.628 318.169C377.731 318.264 377.83 318.364 377.922 318.47C377.963 318.503 378 318.541 378.034 318.581C378.174 318.721 378.299 318.861 378.418 319.001C378.437 319.02 378.453 319.041 378.467 319.064C378.635 319.259 378.789 319.455 378.936 319.651C379.005 319.749 379.082 319.847 379.145 319.944C379.229 320.063 379.313 320.189 379.383 320.308C379.446 320.406 379.502 320.511 379.558 320.609C379.706 320.86 379.832 321.125 379.935 321.398C380.014 321.584 380.077 321.776 380.124 321.971C380.177 322.157 380.216 322.346 380.243 322.538Z" fill="#D0CDF3"/>
<path opacity="0.2" d="M380.243 322.538C380.236 323.761 380.222 325.473 380.166 327.591C380.159 327.885 380.145 328.186 380.138 328.493C380.068 331.464 379.963 335.133 379.817 339.278C379.81 339.53 379.803 339.775 379.789 340.026C379.593 345.087 379.285 350.979 378.754 360.311C377.768 377.548 376.049 362.68 374.322 368.727C369.527 365.777 364.271 362.687 358.651 359.514C357.638 358.941 356.615 358.365 355.583 357.788C344.343 351.518 331.789 344.947 318.683 338.44C318.166 338.181 317.642 337.922 317.124 337.671C287.103 322.831 254.335 308.397 227.787 298.765C222.664 296.906 217.771 295.228 213.171 293.753C203.483 290.657 195.11 288.49 188.665 287.553C181.955 286.575 177.32 286.924 175.447 288.944C175.377 287.519 175.305 286.153 175.23 284.848C175.202 284.415 175.174 283.989 175.146 283.569C175.19 283.454 175.246 283.344 175.3 283.234C175.308 283.217 175.313 283.201 175.321 283.185C175.335 283.149 175.351 283.113 175.37 283.08C175.391 283.037 175.414 282.995 175.44 282.954C175.463 282.905 175.491 282.858 175.524 282.814C175.587 282.716 175.657 282.612 175.734 282.514C175.79 282.44 175.851 282.37 175.915 282.304C175.937 282.27 175.963 282.24 175.992 282.213C176.02 282.185 176.048 282.15 176.083 282.115C176.098 282.093 176.117 282.074 176.139 282.059C176.194 281.996 176.255 281.937 176.321 281.885C176.57 281.655 176.837 281.445 177.118 281.256C177.215 281.193 177.32 281.13 177.418 281.06C178.123 280.638 178.864 280.283 179.634 279.997C179.9 279.9 180.165 279.809 180.452 279.711C180.557 279.683 180.654 279.648 180.759 279.613C180.913 279.564 181.067 279.515 181.228 279.48C182.025 279.243 182.884 279.04 183.814 278.851C184.093 278.795 184.387 278.739 184.681 278.69C184.918 278.648 185.163 278.606 185.408 278.565C187.484 278.236 189.839 277.991 192.439 277.831C192.684 277.817 192.929 277.803 193.173 277.789C193.46 277.775 193.746 277.761 194.04 277.747C194.285 277.733 194.536 277.726 194.788 277.719C195.033 277.705 195.284 277.698 195.543 277.691C196.249 277.67 196.976 277.649 197.717 277.635C199.828 277.6 202.05 277.614 204.385 277.663C205.468 277.684 206.573 277.719 207.705 277.768C207.775 277.768 207.852 277.775 207.922 277.775C208.908 277.803 209.907 277.852 210.921 277.9C211.634 277.935 212.353 277.97 213.073 278.012C213.751 278.054 214.436 278.096 215.128 278.145C215.667 278.173 216.205 278.215 216.75 278.25C217.211 278.285 217.673 278.32 218.134 278.348C218.686 278.39 219.238 278.432 219.798 278.474C220.567 278.537 221.335 278.599 222.118 278.662C222.894 278.732 223.684 278.802 224.474 278.872C225.264 278.942 226.061 279.019 226.857 279.096C226.941 279.103 227.018 279.11 227.095 279.117C227.822 279.194 228.549 279.264 229.283 279.34C233.351 279.753 237.538 280.235 241.844 280.787C244.416 281.116 247.021 281.468 249.658 281.843C253.664 282.409 257.732 283.024 261.828 283.681C265.931 284.345 270.057 285.046 274.207 285.785C275.255 285.974 276.304 286.162 277.359 286.358C278.645 286.596 279.931 286.838 281.218 287.085C282.028 287.239 282.839 287.393 283.65 287.553C284.615 287.742 285.586 287.931 286.551 288.12C292.905 289.378 299.223 290.72 305.388 292.125C306.402 292.355 307.416 292.593 308.422 292.824C310.435 293.292 312.43 293.767 314.405 294.25C314.951 294.383 315.489 294.515 316.027 294.648C317.376 294.984 318.711 295.319 320.032 295.655V295.662C320.109 295.676 320.186 295.697 320.263 295.718C321.227 295.962 322.185 296.207 323.136 296.459C325.379 297.046 327.586 297.637 329.755 298.234C331.195 298.639 332.621 299.038 334.026 299.443C336.13 300.058 338.192 300.673 340.198 301.289C340.694 301.442 341.191 301.596 341.68 301.743C343.148 302.204 344.588 302.663 346 303.12C347.118 303.483 348.208 303.854 349.285 304.224C350.361 304.595 351.417 304.965 352.451 305.336C353.122 305.573 353.779 305.818 354.429 306.056C355.38 306.405 356.303 306.755 357.211 307.111C357.491 307.216 357.763 307.328 358.036 307.433C358.546 307.628 359.043 307.831 359.532 308.034C359.86 308.16 360.182 308.292 360.503 308.432C360.818 308.558 361.14 308.691 361.447 308.824C361.762 308.949 362.069 309.082 362.377 309.222C362.635 309.327 362.887 309.439 363.132 309.551C363.628 309.767 364.124 309.984 364.607 310.208C364.844 310.319 365.082 310.424 365.32 310.536L365.865 310.788C365.942 310.83 366.018 310.865 366.095 310.9C366.69 311.179 367.263 311.459 367.822 311.738C368.346 312.004 368.856 312.27 369.346 312.528C369.926 312.836 370.478 313.136 371.009 313.444C371.114 313.5 371.219 313.563 371.324 313.619C371.68 313.821 372.023 314.031 372.365 314.234C373.036 314.646 373.672 315.052 374.267 315.457C374.854 315.862 375.399 316.261 375.909 316.659C375.909 316.666 375.909 316.666 375.916 316.666C376.161 316.862 376.398 317.058 376.622 317.246C376.986 317.561 377.321 317.861 377.629 318.169C377.732 318.264 377.83 318.364 377.922 318.47C377.963 318.503 378 318.541 378.034 318.581C378.181 318.742 378.328 318.903 378.467 319.064C378.635 319.259 378.789 319.455 378.936 319.651C379.006 319.749 379.083 319.847 379.145 319.944C379.229 320.063 379.313 320.189 379.383 320.308C379.446 320.406 379.502 320.511 379.558 320.609C379.706 320.86 379.833 321.125 379.935 321.398C380.012 321.585 380.075 321.776 380.124 321.971C380.177 322.157 380.217 322.346 380.243 322.538Z" fill="#564FCC"/>
<path d="M97.0396 206.019C96.8524 205.905 96.7507 205.762 96.7344 205.591L96.6367 204.419C96.653 204.24 96.7222 204.114 96.8442 204.041L104.327 199.5C104.392 199.451 104.453 199.427 104.51 199.427C104.632 199.427 104.718 199.459 104.767 199.524L105.841 201.197C105.89 201.27 105.914 201.331 105.914 201.38C105.914 201.429 105.89 201.469 105.841 201.502L99.2856 204.957L105.853 208.289C105.902 208.322 105.926 208.366 105.926 208.423C105.926 208.48 105.902 208.549 105.853 208.631L104.828 210.364C104.795 210.421 104.75 210.45 104.693 210.45C104.645 210.45 104.588 210.429 104.522 210.389L97.0396 206.019ZM109.259 211.976C109.08 211.959 108.99 211.829 108.99 211.585V209.546C108.99 209.416 109.015 209.327 109.063 209.278C109.12 209.229 109.218 209.201 109.356 209.192L110.479 209.241L115.313 193.567C115.362 193.413 115.46 193.327 115.606 193.311L118.377 193.213C118.524 193.222 118.626 193.315 118.683 193.494L123.956 209.156L125.067 209.119C125.295 209.135 125.409 209.266 125.409 209.51V211.438C125.409 211.577 125.38 211.666 125.323 211.707C125.266 211.748 125.169 211.768 125.03 211.768H119.378C119.232 211.768 119.146 211.736 119.122 211.67C119.098 211.605 119.085 211.516 119.085 211.402L119.33 209.62C119.346 209.481 119.378 209.392 119.427 209.351C119.476 209.302 119.566 209.278 119.696 209.278L121.087 209.241L120.038 205.994L113.995 205.872L113.006 209.412L114.483 209.266C114.581 209.266 114.646 209.286 114.679 209.327C114.719 209.367 114.748 209.441 114.764 209.546L114.947 211.402C114.931 211.54 114.894 211.634 114.837 211.683C114.789 211.731 114.703 211.76 114.581 211.768L109.259 211.976ZM114.569 203.797H119.317L116.754 195.948L114.569 203.797ZM134.918 200.977C133.884 200.977 132.704 201.4 131.378 202.247L131.524 209.559L132.855 209.412C132.993 209.412 133.062 209.481 133.062 209.62L132.831 211.512C132.798 211.691 132.708 211.78 132.562 211.78H127.472C127.341 211.78 127.276 211.683 127.276 211.487L127.521 209.62C127.553 209.449 127.643 209.363 127.789 209.363H128.827V201.294L126.959 201.246C126.796 201.246 126.715 201.148 126.715 200.953L126.935 198.841C126.951 198.702 127.049 198.617 127.228 198.584L130.609 198.084C130.755 198.084 130.829 198.178 130.829 198.365V200.477C132.505 198.8 134.153 197.962 135.772 197.962C137.628 197.962 138.735 198.845 139.093 200.611C139.207 201.197 139.264 201.746 139.264 202.259C139.264 202.763 139.26 203.191 139.251 203.541C139.243 203.882 139.231 204.261 139.215 204.676L139.19 205.945C139.174 206.393 139.158 206.84 139.142 207.288L139.093 208.582C139.076 208.997 139.06 209.38 139.044 209.729L140.448 209.668C140.619 209.668 140.704 209.766 140.704 209.961V211.756C140.704 211.854 140.68 211.919 140.631 211.951C140.59 211.976 140.521 211.992 140.423 212L136.883 212.269C136.704 212.269 136.615 212.179 136.615 212C136.639 211.113 136.651 210.279 136.651 209.498L136.676 207.459C136.676 206.881 136.676 206.34 136.676 205.835V203.602C136.676 202.592 136.59 201.95 136.419 201.673C136.249 201.388 136.049 201.201 135.821 201.111C135.593 201.022 135.292 200.977 134.918 200.977ZM155.353 198.072C155.572 198.072 155.69 198.218 155.707 198.511L155.548 200.428C155.532 200.599 155.438 200.684 155.267 200.684L153.07 200.257C153.941 201.185 154.376 202.023 154.376 202.771C154.376 203.52 154.274 204.2 154.071 204.81C153.875 205.412 153.554 205.921 153.106 206.336C152.203 207.182 150.783 207.605 148.846 207.605C148.081 207.605 147.389 207.524 146.771 207.361C146.576 207.809 146.478 208.175 146.478 208.46C146.478 208.745 146.498 208.948 146.539 209.07C146.58 209.192 146.661 209.29 146.783 209.363C147.003 209.502 147.337 209.571 147.784 209.571C148.24 209.571 148.667 209.559 149.066 209.534C150.099 209.485 150.925 209.461 151.544 209.461C152.171 209.461 152.732 209.563 153.229 209.766C153.733 209.97 154.14 210.242 154.449 210.584C155.051 211.251 155.353 212.134 155.353 213.233C155.353 214.576 154.819 215.67 153.753 216.517C152.582 217.452 150.938 217.92 148.822 217.92C147.056 217.92 145.762 217.697 144.94 217.249C144.02 216.744 143.561 215.967 143.561 214.917C143.561 213.868 144.028 212.732 144.964 211.512C144.313 211.146 143.988 210.556 143.988 209.742C143.988 208.92 144.46 207.939 145.404 206.8C144.085 206.035 143.426 204.721 143.426 202.857C143.426 201.221 143.967 199.972 145.05 199.109C146.018 198.336 147.349 197.95 149.042 197.95C149.92 197.95 150.726 197.962 151.458 197.986C153.167 198.043 154.465 198.072 155.353 198.072ZM151.764 203.736C151.853 203.41 151.898 203.06 151.898 202.686C151.898 202.312 151.841 201.966 151.727 201.648C151.621 201.323 151.454 201.046 151.227 200.818C150.738 200.33 150.034 200.086 149.115 200.086C147.65 200.086 146.694 200.582 146.246 201.575C146.091 201.933 146.014 202.369 146.014 202.881C146.014 204.55 147.048 205.384 149.115 205.384C150.563 205.384 151.446 204.834 151.764 203.736ZM150.677 211.878L147.333 211.976C147.007 211.976 146.718 211.963 146.466 211.939C146.197 212.598 146.063 213.245 146.063 213.88C146.063 214.515 146.311 214.954 146.808 215.198C147.304 215.451 147.975 215.577 148.822 215.577C149.668 215.577 150.323 215.524 150.787 215.418C151.251 215.32 151.642 215.182 151.959 215.003C152.594 214.629 152.911 214.14 152.911 213.538C152.911 213.025 152.805 212.667 152.594 212.464C152.195 212.073 151.556 211.878 150.677 211.878ZM166.913 211.927C165.871 212.187 164.549 212.317 162.945 212.317C161.31 212.317 160.121 211.813 159.381 210.804C158.608 209.754 158.221 208.09 158.221 205.811C158.221 203.418 158.551 201.632 159.21 200.452C159.959 199.15 161.155 198.357 162.799 198.072C163.368 197.974 164.003 197.925 164.703 197.925C166.209 197.925 167.303 198.296 167.987 199.036C168.67 199.777 169.012 200.908 169.012 202.43C169.012 203.423 168.837 204.188 168.487 204.725C168.373 204.896 168.219 205.091 168.023 205.311C167.828 205.522 167.466 205.713 166.937 205.884C166.416 206.047 165.818 206.173 165.143 206.263C164.093 206.393 162.648 206.458 160.809 206.458C160.915 207.833 161.253 208.769 161.822 209.266C162.254 209.656 163.002 209.852 164.068 209.852C165.069 209.852 166.066 209.766 167.059 209.595L167.096 208.96C167.104 208.863 167.124 208.798 167.157 208.765C167.197 208.733 167.267 208.704 167.364 208.68L169.122 208.289C169.301 208.289 169.403 208.366 169.427 208.521C169.452 208.659 169.476 208.932 169.5 209.339C169.525 209.738 169.549 210.083 169.574 210.376C169.598 210.669 169.618 210.95 169.635 211.219L169.684 211.902C169.692 212.106 169.696 212.277 169.696 212.415C169.696 212.659 169.517 212.802 169.159 212.842L167.132 213.086C166.953 213.086 166.864 212.997 166.864 212.818L166.913 211.927ZM165.777 203.931C165.989 203.744 166.115 203.528 166.156 203.284C166.205 203.032 166.229 202.739 166.229 202.405C166.229 202.063 166.196 201.762 166.131 201.502C166.074 201.242 165.973 201.018 165.826 200.831C165.509 200.44 164.992 200.245 164.276 200.245C162.892 200.245 161.969 200.595 161.505 201.294C161.065 201.945 160.821 203.069 160.772 204.664C163.613 204.623 165.281 204.379 165.777 203.931ZM172.711 195.447C172.564 195.447 172.491 195.358 172.491 195.179L172.564 192.786C172.564 192.688 172.589 192.627 172.638 192.603C172.687 192.57 172.76 192.546 172.857 192.53L176.825 192.627C176.914 192.627 176.971 192.652 176.996 192.701C177.02 192.741 177.036 192.811 177.044 192.908L176.959 194.849L177.142 209.449L178.802 209.314C178.916 209.314 178.981 209.392 178.998 209.546L179.144 211.756C179.128 211.854 179.099 211.919 179.059 211.951C179.026 211.976 178.957 211.992 178.851 212L172.223 211.927C172.109 211.927 172.052 211.829 172.052 211.634V209.546C172.052 209.392 172.117 209.314 172.247 209.314L174.554 209.461V195.301L172.711 195.447ZM191.681 198.572C191.811 198.572 191.876 198.67 191.876 198.865L191.998 209.168L193.634 209.107C193.797 209.115 193.878 209.213 193.878 209.4L193.658 211.634C193.65 211.805 193.552 211.89 193.365 211.89H190.35C190.098 211.89 189.931 211.736 189.85 211.426L189.557 210.193C188.214 211.349 186.684 211.927 184.967 211.927C182.566 211.927 181.366 210.393 181.366 207.325C181.366 206.259 181.427 205.07 181.549 203.76L181.793 201.001L180.23 201.05C180.06 201.05 179.974 200.953 179.974 200.757L180.218 198.597C180.235 198.499 180.259 198.438 180.292 198.414C180.332 198.381 180.401 198.361 180.499 198.353L184.381 198.45C184.495 198.45 184.552 198.54 184.552 198.719C184.511 199.109 184.47 199.549 184.43 200.037C184.088 203.707 183.917 205.974 183.917 206.836C183.917 207.699 184.08 208.326 184.405 208.716C184.731 209.099 185.317 209.29 186.163 209.29C187.009 209.29 188.088 208.875 189.398 208.045V201.026L187.872 200.94C187.758 200.924 187.689 200.855 187.665 200.733L187.896 198.719C187.929 198.54 188.019 198.45 188.165 198.45L191.681 198.572ZM204.779 201.587C202.582 200.839 201.031 200.464 200.128 200.464C199.151 200.464 198.492 200.704 198.15 201.185C198.012 201.372 197.943 201.604 197.943 201.88C197.943 202.157 197.975 202.397 198.041 202.601C198.106 202.804 198.224 202.983 198.395 203.138C198.736 203.463 199.396 203.703 200.372 203.858C201.349 204.013 202.199 204.183 202.923 204.371C203.656 204.55 204.242 204.786 204.681 205.079C205.129 205.363 205.446 205.726 205.633 206.165C205.829 206.604 205.926 207.17 205.926 207.862C205.926 208.545 205.825 209.152 205.621 209.681C205.418 210.21 205.129 210.657 204.754 211.023C203.998 211.748 202.948 212.11 201.605 212.11C200.685 212.11 199.627 211.996 198.431 211.768L198.639 212.781C198.639 212.911 198.545 212.985 198.358 213.001L196.258 213.184C195.949 213.184 195.778 213.025 195.746 212.708L195.404 209.083C195.404 208.936 195.501 208.847 195.697 208.814L197.601 208.472C197.739 208.472 197.825 208.566 197.857 208.753L198.004 209.559C199.184 209.746 200.156 209.839 200.921 209.839C201.686 209.839 202.256 209.681 202.63 209.363C203.005 209.038 203.192 208.611 203.192 208.082C203.192 207.585 202.993 207.231 202.594 207.02C202.244 206.824 201.556 206.649 200.531 206.495C199.514 206.332 198.675 206.157 198.016 205.97C197.357 205.774 196.816 205.518 196.393 205.201C195.587 204.598 195.184 203.577 195.184 202.137C195.184 200.883 195.562 199.882 196.319 199.134C197.125 198.344 198.252 197.95 199.701 197.95C200.555 197.95 201.54 198.235 202.655 198.804L202.423 197.84C202.423 197.645 202.508 197.539 202.679 197.522L205.096 197.327C205.226 197.327 205.292 197.421 205.292 197.608L205.023 201.331C205.015 201.502 204.933 201.587 204.779 201.587ZM214.654 191.199C214.776 191.24 214.837 191.309 214.837 191.407C214.837 191.431 214.829 191.476 214.813 191.541L208.697 217.383C208.673 217.497 208.6 217.554 208.478 217.554C208.429 217.554 208.388 217.55 208.355 217.542L206.817 217.164C206.687 217.131 206.622 217.046 206.622 216.907C206.622 216.867 206.626 216.838 206.634 216.822L212.689 191.004C212.713 190.866 212.795 190.796 212.933 190.796C212.966 190.796 212.994 190.8 213.019 190.809L214.654 191.199ZM226.483 203.87C226.67 203.984 226.772 204.126 226.788 204.297L226.886 205.469C226.869 205.648 226.8 205.774 226.678 205.848L219.195 210.389C219.13 210.438 219.069 210.462 219.012 210.462C218.89 210.462 218.805 210.429 218.756 210.364L217.682 208.692C217.633 208.619 217.608 208.558 217.608 208.509C217.608 208.46 217.633 208.419 217.682 208.387L224.237 204.932L217.669 201.6C217.621 201.567 217.596 201.526 217.596 201.478C217.596 201.421 217.621 201.347 217.669 201.258L218.695 199.524C218.727 199.467 218.768 199.439 218.817 199.439C218.874 199.439 218.935 199.459 219 199.5L226.483 203.87Z" fill="#6C63FF"/>
<path d="M199.337 134.641C200.039 133.001 200.974 131.471 202.112 130.097C207.508 123.506 217.322 120.605 227.394 128.406C229.333 127.973 231.354 128.089 233.231 128.741C234.117 129.062 234.947 129.52 235.691 130.097C237.217 131.287 238.406 132.853 239.144 134.641C239.539 135.585 239.798 136.581 239.913 137.597C242.403 136.304 245.038 135.311 247.763 134.641C254.448 132.978 261.439 132.978 268.124 134.641C270.267 135.183 272.329 136 274.261 137.073C277.533 138.96 279.413 141.344 279.748 143.993C284.467 144.259 289.373 146.74 293.029 150.808C293.442 151.263 293.84 151.738 294.21 152.227C297.285 156.25 298.937 161.179 298.908 166.242V167.13H298.02C295.588 167.127 293.178 167.597 290.925 168.514C289.465 169.1 288.083 169.863 286.808 170.785C285.974 171.377 285.187 172.031 284.453 172.742C282.75 174.391 281.308 176.288 280.175 178.369C277.271 183.629 276.264 189.727 277.323 195.641C277.566 197.01 277.921 198.357 278.385 199.667C279.046 201.537 279.916 203.326 280.979 205.001C281.021 205.064 281.056 205.126 281.097 205.189C281.566 205.937 282.013 206.699 282.432 207.468C282.747 208.041 283.041 208.628 283.313 209.215C284.11 210.85 284.783 212.541 285.326 214.276C286.299 217.345 286.872 220.525 287.032 223.74C287.081 224.593 287.095 225.446 287.067 226.299C287.025 228.497 286.784 230.687 286.347 232.841C286.284 233.135 286.221 233.421 286.158 233.715L285.648 235.945L284.439 241.264L283.6 244.927L282.824 248.324L281.678 246.681C281.286 246.122 280.301 244.402 278.979 241.97C278.106 240.383 277.092 238.489 275.995 236.42C274.464 233.519 272.787 230.283 271.144 227.054C270.48 225.747 269.823 224.446 269.187 223.174C267.984 220.763 266.852 218.435 265.881 216.366C264.986 214.458 264.224 212.766 263.658 211.41C263.483 212.298 263.336 213.2 263.224 214.108C263.099 215.031 263.008 215.968 262.959 216.904C262.945 217.044 262.938 217.191 262.931 217.331L262.903 217.904L262.896 218.072L262.155 218.17C257.882 218.627 253.573 218.66 249.294 218.267H249.287C243.617 217.841 238.055 216.492 232.819 214.276C229.845 212.986 227.068 211.282 224.57 209.216C223.404 208.25 222.314 207.193 221.313 206.056C221.062 205.77 220.817 205.483 220.579 205.189C219.196 203.489 218.012 201.637 217.049 199.667C216.405 198.368 215.858 197.022 215.414 195.641C212.73 187.512 212.883 177.37 215.875 165.319C215.067 165.164 214.293 164.865 213.589 164.439C211.395 163.117 209.871 160.496 209.395 157.295L208.641 157.498C205.964 156.251 203.58 154.455 201.644 152.227C201.26 151.774 200.901 151.3 200.567 150.808C197.149 145.776 197.121 139.736 199.337 134.641Z" fill="#2F2E41"/>
</g>
<defs>
<clipPath id="clip0_8_4209">
<rect width="549.976" height="400" fill="white"/>
</clipPath>
</defs>
</svg>
